<svg width="30" height="30" viewBox="0 0 30 30" fill="none" xmlns="http://www.w3.org/2000/svg">
<path d="M15.0293 9.00098C15.0475 9.00153 15.0657 9.00235 15.084 9.00391C15.103 9.0055 15.1218 9.00807 15.1406 9.01074C15.1484 9.01185 15.1563 9.01238 15.1641 9.01367C15.1726 9.01509 15.181 9.01693 15.1895 9.01855C15.1999 9.02056 15.2104 9.02208 15.2207 9.02441L15.2637 9.03516C15.2802 9.03967 15.2963 9.04548 15.3125 9.05078C15.3196 9.05313 15.3269 9.05511 15.334 9.05762C15.3921 9.07814 15.4469 9.10467 15.499 9.13477C15.5102 9.14123 15.5222 9.14641 15.5332 9.15332C15.562 9.17145 15.5896 9.1911 15.6162 9.21191C15.6289 9.22183 15.6401 9.23357 15.6523 9.24414C15.6665 9.25639 15.6809 9.26826 15.6943 9.28125C15.6985 9.28525 15.703 9.28889 15.707 9.29297L19.29 12.876L22.8164 14.0518C23.3402 14.2265 23.6229 14.7926 23.4482 15.3164C23.2735 15.8401 22.7074 16.1229 22.1836 15.9482L18.4336 14.6982C18.2865 14.6491 18.1527 14.5667 18.043 14.457L15.666 12.0801L14.8203 17.1562L18.207 20.543L18.3115 20.665C18.3428 20.7085 18.3705 20.7547 18.3945 20.8027L20.8945 25.8027C21.1415 26.2967 20.9412 26.8975 20.4473 27.1445C19.9533 27.3915 19.3525 27.1912 19.1055 26.6973L16.6777 21.8418L13.043 18.207C12.8147 17.9787 12.7107 17.6544 12.7637 17.3359L13.7627 11.3379L10.6172 12.125L8.33203 15.5547C8.02567 16.0142 7.40482 16.1384 6.94531 15.832C6.48584 15.5257 6.36167 14.9048 6.66797 14.4453L9.16797 10.6953L9.22266 10.6201C9.35861 10.4523 9.5467 10.3331 9.75781 10.2803L14.7578 9.03027H14.7568C14.7984 9.01983 14.8407 9.01186 14.8838 9.00684H14.8857C14.8886 9.0065 14.8916 9.00617 14.8945 9.00586C14.9226 9.00289 14.9509 9.00153 14.9795 9.00098C14.9961 9.00063 15.0127 9.00049 15.0293 9.00098ZM11.7002 20.6504C12.0315 20.2086 12.6578 20.119 13.0996 20.4502C13.5414 20.7815 13.631 21.4078 13.2998 21.8496L9.5498 26.8496C9.21846 27.2913 8.59219 27.381 8.15039 27.0498C7.70866 26.7185 7.61902 26.0922 7.9502 25.6504L11.7002 20.6504ZM16.4727 2.76074C16.9876 2.81193 17.4717 3.04005 17.8408 3.40918C18.2628 3.83114 18.5 4.40326 18.5 5C18.5 5.59674 18.2628 6.16886 17.8408 6.59082C17.4189 7.01275 16.8467 7.25 16.25 7.25C15.6533 7.24998 15.0811 7.01276 14.6592 6.59082C14.2372 6.16887 14 5.59672 14 5C14 4.40328 14.2372 3.83113 14.6592 3.40918C15.0811 2.98724 15.6533 2.75002 16.25 2.75L16.4727 2.76074Z" fill="#D6A177"/>
</svg>
