<svg width="30" height="30" viewBox="0 0 30 30" fill="none" xmlns="http://www.w3.org/2000/svg">
<path d="M8.01074 3.68945C13.1469 2.43745 16.8532 2.43752 21.9893 3.68945C23.6439 4.09295 24.7499 5.59619 24.75 7.2627V19C24.75 21.2387 23.2008 23.114 21.1162 23.6162L23.5 26H21L18.75 23.75H11.75L9.5 26H7L9.30078 23.6982C7.00899 23.3601 5.25 21.3858 5.25 19V7.2627C5.25012 5.59619 6.35608 4.09294 8.01074 3.68945ZM6.75 19C6.75 20.7949 8.20507 22.25 10 22.25H20C21.7949 22.25 23.25 20.7949 23.25 19V14.75H6.75V19ZM10.5 17C11.3284 17 12 17.6716 12 18.5C12 19.3284 11.3284 20 10.5 20C9.67157 20 9 19.3284 9 18.5C9.00002 17.6716 9.67158 17 10.5 17ZM19.5 17C20.3284 17 21 17.6716 21 18.5C21 19.3284 20.3284 20 19.5 20C18.6716 20 18 19.3284 18 18.5C18 17.6716 18.6716 17 19.5 17ZM8 8.75C7.30965 8.75 6.75002 9.30966 6.75 10V13.25H14.25V8.75H8ZM15.75 13.25H23.25V10C23.25 9.30966 22.6903 8.75 22 8.75H15.75V13.25ZM21.6338 5.14648C16.7311 3.95144 13.2689 3.95138 8.36621 5.14648C7.41859 5.37748 6.75012 6.2507 6.75 7.2627V7.55273C7.12532 7.36065 7.54943 7.25 8 7.25H22C22.4506 7.25 22.8747 7.36065 23.25 7.55273V7.2627C23.2499 6.25072 22.5814 5.37749 21.6338 5.14648Z" fill="#D6A177"/>
</svg>
