<svg width="30" height="30" viewBox="0 0 30 30" fill="none" xmlns="http://www.w3.org/2000/svg">
<path d="M17.5 5.12793C17.7532 5.12793 17.9932 5.24275 18.1514 5.44043L22.9014 11.3779H23.75C24.6339 11.3779 25.4814 11.7295 26.1064 12.3545C26.7316 12.9796 27.083 13.8279 27.083 14.7119V21.7119C27.0828 22.172 26.7101 22.5449 26.25 22.5449H24.4766C24.3288 23.1164 24.031 23.6438 23.6064 24.0684C22.9813 24.6934 22.134 25.0449 21.25 25.0449C20.366 25.0449 19.5187 24.6934 18.8936 24.0684C18.469 23.6438 18.1712 23.1164 18.0234 22.5449H11.9766C11.8288 23.1164 11.531 23.6438 11.1064 24.0684C10.4813 24.6934 9.63396 25.0449 8.75 25.0449C7.86604 25.0449 7.01866 24.6934 6.39355 24.0684C5.96914 23.6439 5.67317 23.1162 5.52539 22.5449H3.75C3.2899 22.5449 2.91721 22.172 2.91699 21.7119V12.2119C2.91699 12.106 2.93726 12.0007 2.97656 11.9023L5.47559 5.65234C5.60214 5.33596 5.90925 5.12793 6.25 5.12793H17.5ZM8.75 20.0449C8.30797 20.0449 7.88385 20.2206 7.57129 20.5332C7.25886 20.8457 7.08301 21.27 7.08301 21.7119L7.0918 21.876C7.12962 22.2575 7.29791 22.6161 7.57129 22.8896C7.88385 23.2022 8.30797 23.3779 8.75 23.3779C9.19203 23.3779 9.61615 23.2022 9.92871 22.8896C10.241 22.5772 10.4169 22.1537 10.417 21.7119C10.417 21.27 10.2411 20.8457 9.92871 20.5332C9.61615 20.2206 9.19203 20.0449 8.75 20.0449ZM21.25 20.0449C20.808 20.0449 20.3838 20.2206 20.0713 20.5332C19.7589 20.8457 19.583 21.27 19.583 21.7119C19.5831 22.1537 19.759 22.5772 20.0713 22.8896C20.3838 23.2022 20.808 23.3779 21.25 23.3779C21.692 23.3779 22.1161 23.2022 22.4287 22.8896C22.741 22.5772 22.9169 22.1537 22.917 21.7119C22.917 21.27 22.7411 20.8457 22.4287 20.5332C22.1161 20.2206 21.692 20.0449 21.25 20.0449ZM4.58301 20.8779H5.52344C5.67118 20.3065 5.96906 19.779 6.39355 19.3545C7.01865 18.7295 7.86608 18.3779 8.75 18.3779C9.63392 18.3779 10.4814 18.7296 11.1064 19.3545C11.5309 19.779 11.8288 20.3065 11.9766 20.8779H18.0234C18.1712 20.3065 18.4691 19.779 18.8936 19.3545C19.5186 18.7295 20.3661 18.3779 21.25 18.3779C22.1339 18.3779 22.9814 18.7296 23.6064 19.3545C24.0309 19.779 24.3288 20.3065 24.4766 20.8779H25.417V14.7119C25.417 14.27 25.2411 13.8457 24.9287 13.5332C24.6161 13.2206 24.192 13.0449 23.75 13.0449H4.58301V20.8779ZM4.98145 11.3779H14.167V6.79492H6.81348L4.98145 11.3779ZM15.833 11.3779H20.7656L17.0986 6.79492H15.833V11.3779Z" fill="#D6A177"/>
</svg>
