<svg width="180" height="180" viewBox="0 0 180 180" fill="none" xmlns="http://www.w3.org/2000/svg">
<rect width="180" height="180" rx="90" fill="#F5F3EB"/>
<path d="M111.742 84.5098C110.204 84.2902 108.008 84.5094 107.13 82.9721C106.251 81.2153 108.447 80.1174 109.545 78.7998C117.012 70.0155 124.479 61.2312 131.945 52.4468C130.628 50.9096 129.31 49.5922 127.773 48.2745C125.797 50.0314 123.82 51.5682 121.843 53.3251C114.596 59.4741 107.349 65.6229 100.102 71.7719C99.2237 72.4307 98.3455 73.5292 97.0279 73.3096C95.9298 72.8704 96.1495 71.7721 95.9298 70.8937C95.0514 59.6937 94.1726 48.7139 93.2941 37.5139C93.2941 36.4159 93.0748 35.3179 93.0748 34.2198C92.1964 34.2198 91.0983 34 90.2198 34C89.1218 34 88.2436 34.0002 87.1455 34.2198C86.2671 46.0786 85.3882 57.9368 84.5098 69.7957C84.5098 71.1133 84.949 72.6508 83.4118 73.3096C82.0941 73.9684 80.9964 72.4307 79.8984 71.7719C72.6513 65.6229 65.4039 59.4741 58.1569 53.3251C56.1804 51.7878 54.4235 50.0316 52.6667 48.4943C51.1294 49.812 49.812 51.1294 48.4943 52.6667C52.0081 56.8392 55.5216 60.7924 59.2549 64.9649C63.6471 70.0159 68.0392 75.2865 72.4314 80.3375C74.4078 82.5336 73.9687 83.8508 70.8942 84.29C70.2354 84.29 69.5766 84.7296 68.6981 84.7296C62.3295 85.1688 55.7412 85.827 49.3725 86.2662C44.3216 86.7055 39.2708 86.9251 34.2198 87.3643C34.2198 88.2427 34 89.3414 34 90.2198C34 91.0983 34.0002 92.1959 34.2198 93.0743C36.1963 93.2939 38.1727 93.2943 40.1491 93.5139C50.0315 94.3924 59.914 95.0503 70.016 95.9288C71.3337 95.9288 73.0902 95.4896 73.5294 97.0268C73.9686 98.3445 72.6514 99.4425 71.773 100.321C64.0867 109.325 56.4002 118.329 48.4943 127.333C49.812 128.871 51.1294 130.188 52.6667 131.506C55.0824 129.31 57.718 127.114 60.1337 124.917C66.9415 118.988 73.9687 113.278 80.7766 107.569C82.7531 106.031 84.0709 105.592 84.2905 108.886C85.169 121.185 86.0473 133.482 86.9257 145.78C88.0237 145.78 88.902 146 90 146C91.098 146 91.9768 146 93.0748 145.78C93.5141 137.874 94.1728 129.969 94.612 122.063C94.8316 117.671 95.4904 113.279 95.71 108.886C95.9296 106.251 96.8081 105.592 99.0041 107.349C99.663 107.788 100.102 108.227 100.761 108.667C109.545 116.353 118.549 124.039 127.333 131.506C128.871 130.188 130.189 128.651 131.506 127.333C123.381 118.329 115.475 109.106 107.788 99.6625C105.373 96.8076 105.592 96.1484 109.326 95.9288C121.404 94.8307 133.483 93.9525 145.781 92.8545C145.781 91.976 146 90.8784 146 90C146 88.902 146 88.0229 145.781 87.1445C143.145 86.9248 140.73 86.7057 138.094 86.4861C129.53 85.8272 120.745 85.1686 111.742 84.5098Z" fill="#D6A177"/>
</svg>
