<svg width="32" height="32" viewBox="0 0 32 32" fill="none" xmlns="http://www.w3.org/2000/svg">
<rect width="32" height="32" rx="16" fill="#F5F3EB"/>
<path d="M20.6589 14.8235C20.3295 14.7765 19.8588 14.8234 19.6706 14.494C19.4824 14.1176 19.953 13.8823 20.1883 13.6C21.7883 11.7176 23.3883 9.83525 24.9883 7.9529C24.7059 7.62348 24.4236 7.34118 24.0942 7.05882C23.6707 7.43529 23.2471 7.76461 22.8235 8.14108C21.2706 9.45873 19.7177 10.7763 18.1648 12.094C17.9765 12.2352 17.7883 12.4705 17.506 12.4235C17.2707 12.3294 17.3177 12.094 17.2707 11.9058C17.0824 9.50579 16.8941 7.15299 16.7059 4.75299C16.7059 4.51769 16.6589 4.2824 16.6589 4.0471C16.4707 4.0471 16.2353 4 16.0471 4C15.8118 4 15.6236 4.00005 15.3883 4.0471C15.2001 6.58828 15.0118 9.12932 14.8235 11.6705C14.8235 11.9528 14.9176 12.2823 14.5882 12.4235C14.3059 12.5647 14.0707 12.2352 13.8354 12.094C12.2824 10.7763 10.7294 9.45873 9.17647 8.14108C8.75294 7.81167 8.37647 7.43534 8 7.10593C7.67059 7.38828 7.38828 7.67059 7.10593 8C7.85887 8.89412 8.61176 9.74122 9.41176 10.6353C10.3529 11.7177 11.2941 12.8471 12.2353 13.9295C12.6588 14.4 12.5647 14.6823 11.9059 14.7764C11.7647 14.7764 11.6236 14.8706 11.4353 14.8706C10.0706 14.9648 8.65882 15.1058 7.29412 15.1999C6.21176 15.294 5.12946 15.3411 4.0471 15.4352C4.0471 15.6234 4 15.8589 4 16.0471C4 16.2353 4.00005 16.4705 4.0471 16.6588C4.47063 16.7058 4.89414 16.7059 5.31767 16.753C7.43532 16.9412 9.55301 17.0822 11.7177 17.2705C12.0001 17.2705 12.3765 17.1763 12.4706 17.5057C12.5647 17.7881 12.2824 18.0234 12.0942 18.2116C10.4472 20.141 8.80005 22.0706 7.10593 24C7.38828 24.3294 7.67059 24.6117 8 24.8941C8.51765 24.4235 9.08242 23.9529 9.60007 23.4823C11.0589 22.2117 12.5647 20.9882 14.0236 19.7647C14.4471 19.4353 14.7295 19.3412 14.7765 20.0471C14.9648 22.6824 15.153 25.3176 15.3412 27.9529C15.5765 27.9529 15.7647 28 16 28C16.2353 28 16.4236 28 16.6589 27.9529C16.753 26.2588 16.8942 24.5648 16.9883 22.8706C17.0353 21.9295 17.1765 20.9883 17.2236 20.0471C17.2706 19.4824 17.4589 19.3411 17.9295 19.7176C18.0706 19.8117 18.1648 19.9059 18.306 20C20.1883 21.6471 22.1176 23.2941 24 24.8941C24.3294 24.6117 24.6118 24.2824 24.8942 24C23.153 22.0706 21.4589 20.0941 19.8118 18.0705C19.2942 17.4588 19.3412 17.3175 20.1412 17.2705C22.7294 17.0352 25.3177 16.847 27.953 16.6117C27.953 16.4234 28 16.1882 28 16C28 15.7647 28.0001 15.5763 27.953 15.3881C27.3883 15.341 26.8707 15.2941 26.306 15.247C24.4707 15.1058 22.5883 14.9647 20.6589 14.8235Z" fill="#D6A177"/>
</svg>
