<svg width="21" height="21" viewBox="0 0 21 21" fill="none" xmlns="http://www.w3.org/2000/svg">
<circle cx="10.2" cy="10.2" r="10.2" fill="#D0CEC1"/>
<g clip-path="url(#clip0_4012_1225)">
<path d="M4.4624 10.2004C4.4624 10.9539 4.61081 11.6999 4.89914 12.396C5.18748 13.0921 5.6101 13.7246 6.14288 14.2574C6.67565 14.7902 7.30815 15.2128 8.00426 15.5012C8.70036 15.7895 9.44644 15.9379 10.1999 15.9379C10.9534 15.9379 11.6994 15.7895 12.3955 15.5012C13.0917 15.2128 13.7242 14.7902 14.2569 14.2574C14.7897 13.7246 15.2123 13.0921 15.5007 12.396C15.789 11.6999 15.9374 10.9539 15.9374 10.2004C15.9374 9.44693 15.789 8.70085 15.5007 8.00474C15.2123 7.30864 14.7897 6.67614 14.2569 6.14337C13.7242 5.61059 13.0917 5.18797 12.3955 4.89963C11.6994 4.6113 10.9534 4.46289 10.1999 4.46289C9.44644 4.46289 8.70036 4.6113 8.00426 4.89963C7.30815 5.18797 6.67565 5.61059 6.14288 6.14337C5.6101 6.67614 5.18748 7.30864 4.89914 8.00474C4.61081 8.70085 4.4624 9.44693 4.4624 10.2004Z" stroke="#5D625B" stroke-width="1.275" stroke-linecap="round" stroke-linejoin="round"/>
<path d="M10.2 7.0127L13.2345 9.21207L12.1125 12.7502H8.28753L7.16553 9.21207L10.2 7.0127Z" stroke="#5D625B" stroke-width="1.275" stroke-linecap="round" stroke-linejoin="round"/>
<path d="M10.1995 7.01289V4.46289M12.112 12.7504L13.7058 14.6629M13.234 9.21227L15.6183 8.28789M8.32526 12.7823L6.69326 14.6629M7.16501 9.21227L4.78076 8.28789" stroke="#5D625B" stroke-width="1.275" stroke-linecap="round" stroke-linejoin="round"/>
</g>
<defs>
<clipPath id="clip0_4012_1225">
<rect width="15.3" height="15.3" fill="white" transform="translate(2.5498 2.55029)"/>
</clipPath>
</defs>
</svg>
