<svg width="21" height="21" viewBox="0 0 21 21" fill="none" xmlns="http://www.w3.org/2000/svg">
<circle cx="10.2" cy="10.2" r="10.2" fill="#D0CEC1"/>
<path d="M3.82471 10.1997H4.46221" stroke="#5D625B" stroke-width="0.95625" stroke-linecap="round" stroke-linejoin="round"/>
<path d="M6.3749 7.6499H5.0999C4.93083 7.6499 4.76868 7.71707 4.64912 7.83662C4.52957 7.95618 4.4624 8.11833 4.4624 8.2874V12.1124C4.4624 12.2815 4.52957 12.4436 4.64912 12.5632C4.76868 12.6827 4.93083 12.7499 5.0999 12.7499H6.3749" stroke="#5D625B" stroke-width="0.95625" stroke-linecap="round" stroke-linejoin="round"/>
<path d="M6.375 7.0125V13.3875C6.375 13.5566 6.44217 13.7187 6.56172 13.8383C6.68127 13.9578 6.84342 14.025 7.0125 14.025H7.65C7.81908 14.025 7.98123 13.9578 8.10078 13.8383C8.22033 13.7187 8.2875 13.5566 8.2875 13.3875V7.0125C8.2875 6.84342 8.22033 6.68127 8.10078 6.56172C7.98123 6.44217 7.81908 6.375 7.65 6.375H7.0125C6.84342 6.375 6.68127 6.44217 6.56172 6.56172C6.44217 6.68127 6.375 6.84342 6.375 7.0125Z" stroke="#5D625B" stroke-width="0.95625" stroke-linecap="round" stroke-linejoin="round"/>
<path d="M8.2876 10.1997H12.1126" stroke="#5D625B" stroke-width="0.95625" stroke-linecap="round" stroke-linejoin="round"/>
<path d="M12.1123 7.0125V13.3875C12.1123 13.5566 12.1795 13.7187 12.299 13.8383C12.4186 13.9578 12.5807 14.025 12.7498 14.025H13.3873C13.5564 14.025 13.7185 13.9578 13.8381 13.8383C13.9576 13.7187 14.0248 13.5566 14.0248 13.3875V7.0125C14.0248 6.84342 13.9576 6.68127 13.8381 6.56172C13.7185 6.44217 13.5564 6.375 13.3873 6.375H12.7498C12.5807 6.375 12.4186 6.44217 12.299 6.56172C12.1795 6.68127 12.1123 6.84342 12.1123 7.0125Z" stroke="#5D625B" stroke-width="0.95625" stroke-linecap="round" stroke-linejoin="round"/>
<path d="M14.0249 7.6499H15.2999C15.469 7.6499 15.6311 7.71707 15.7507 7.83662C15.8702 7.95618 15.9374 8.11833 15.9374 8.2874V12.1124C15.9374 12.2815 15.8702 12.4436 15.7507 12.5632C15.6311 12.6827 15.469 12.7499 15.2999 12.7499H14.0249" stroke="#5D625B" stroke-width="0.95625" stroke-linecap="round" stroke-linejoin="round"/>
<path d="M16.575 10.1997H15.9375" stroke="#5D625B" stroke-width="0.95625" stroke-linecap="round" stroke-linejoin="round"/>
</svg>
