<svg width="21" height="21" viewBox="0 0 21 21" fill="none" xmlns="http://www.w3.org/2000/svg">
<circle cx="10.2" cy="10.2" r="10.2" fill="#D0CEC1"/>
<g clip-path="url(#clip0_4012_1223)">
<path d="M5.09961 6.37461C5.09961 6.03646 5.23394 5.71216 5.47305 5.47305C5.71216 5.23394 6.03646 5.09961 6.37461 5.09961H14.0246C14.3628 5.09961 14.6871 5.23394 14.9262 5.47305C15.1653 5.71216 15.2996 6.03646 15.2996 6.37461V14.0246C15.2996 14.3628 15.1653 14.6871 14.9262 14.9262C14.6871 15.1653 14.3628 15.2996 14.0246 15.2996H6.37461C6.03646 15.2996 5.71216 15.1653 5.47305 14.9262C5.23394 14.6871 5.09961 14.3628 5.09961 14.0246V6.37461Z" stroke="#5D625B" stroke-width="1.275" stroke-linecap="round" stroke-linejoin="round"/>
<path d="M7.6499 5.09961V15.2996" stroke="#5D625B" stroke-width="1.275" stroke-linecap="round" stroke-linejoin="round"/>
<path d="M12.7495 5.09961V15.2996" stroke="#5D625B" stroke-width="1.275" stroke-linecap="round" stroke-linejoin="round"/>
<path d="M5.09961 7.6499H7.64961" stroke="#5D625B" stroke-width="1.275" stroke-linecap="round" stroke-linejoin="round"/>
<path d="M5.09961 12.75H7.64961" stroke="#5D625B" stroke-width="1.275" stroke-linecap="round" stroke-linejoin="round"/>
<path d="M5.09961 10.1997H15.2996" stroke="#5D625B" stroke-width="1.275" stroke-linecap="round" stroke-linejoin="round"/>
<path d="M12.7495 7.6499H15.2995" stroke="#5D625B" stroke-width="1.275" stroke-linecap="round" stroke-linejoin="round"/>
<path d="M12.7495 12.75H15.2995" stroke="#5D625B" stroke-width="1.275" stroke-linecap="round" stroke-linejoin="round"/>
</g>
<defs>
<clipPath id="clip0_4012_1223">
<rect width="15.3" height="15.3" fill="white" transform="translate(2.5498 2.5498)"/>
</clipPath>
</defs>
</svg>
