<svg width="21" height="21" viewBox="0 0 21 21" fill="none" xmlns="http://www.w3.org/2000/svg">
<circle cx="10.2" cy="10.2" r="10.2" fill="#D0CEC1"/>
<g clip-path="url(#clip0_4012_1224)">
<path d="M12.7499 5.73779L14.6624 7.65029L13.3874 8.28779L15.9374 10.8378L14.0249 11.4753L16.5749 14.0253H10.8374" stroke="#5D625B" stroke-width="1.275" stroke-linecap="round" stroke-linejoin="round"/>
<path d="M12.1123 15.9379V14.0254" stroke="#5D625B" stroke-width="1.275" stroke-linecap="round" stroke-linejoin="round"/>
<path d="M7.65 10.838L6.375 9.56299" stroke="#5D625B" stroke-width="1.275" stroke-linecap="round" stroke-linejoin="round"/>
<path d="M7.6499 10.2003L8.9249 8.92529" stroke="#5D625B" stroke-width="1.275" stroke-linecap="round" stroke-linejoin="round"/>
<path d="M7.6499 15.9379V7.65039" stroke="#5D625B" stroke-width="1.275" stroke-linecap="round" stroke-linejoin="round"/>
<path d="M6.26201 12.7504C5.98308 12.734 5.71112 12.6568 5.46526 12.524C5.2194 12.3913 5.00561 12.2063 4.83892 11.9821C4.67223 11.7579 4.5567 11.4998 4.50045 11.2261C4.4442 10.9525 4.4486 10.6698 4.51335 10.398C4.28223 10.2055 4.09977 9.96126 3.98077 9.68504C3.86178 9.40883 3.8096 9.10845 3.82848 8.80828C3.84736 8.50812 3.93677 8.21664 4.08944 7.95752C4.24211 7.69839 4.45374 7.47892 4.70715 7.31694C4.48489 6.92211 4.41004 6.46119 4.49592 6.01632C4.58179 5.57144 4.82283 5.17151 5.17607 4.88776C5.52931 4.60402 5.97181 4.45491 6.42474 4.46699C6.87767 4.47907 7.31159 4.65156 7.64921 4.95373C7.9869 4.65204 8.42068 4.47996 8.87335 4.46811C9.32603 4.45626 9.76822 4.60542 10.1212 4.88904C10.4742 5.17265 10.7152 5.57232 10.8011 6.01692C10.8871 6.46151 10.8125 6.92218 10.5906 7.31694C10.8441 7.47887 11.0558 7.69829 11.2085 7.95739C11.3612 8.21649 11.4507 8.50796 11.4696 8.80812C11.4886 9.10829 11.4365 9.40869 11.3175 9.68493C11.1986 9.96117 11.0161 10.2055 10.7851 10.398C10.852 10.679 10.8544 10.9715 10.7921 11.2536C10.7298 11.5356 10.6044 11.7999 10.4253 12.0266C10.2462 12.2533 10.0182 12.4364 9.75818 12.5623C9.4982 12.6882 9.21307 12.7536 8.92421 12.7535H6.37421L6.26201 12.7504Z" stroke="#5D625B" stroke-width="1.275" stroke-linecap="round" stroke-linejoin="round"/>
</g>
<defs>
<clipPath id="clip0_4012_1224">
<rect width="15.3" height="15.3" fill="white" transform="translate(2.5498 2.55029)"/>
</clipPath>
</defs>
</svg>
