<svg width="184" height="40" viewBox="0 0 184 40" fill="none" xmlns="http://www.w3.org/2000/svg">
<path d="M176.311 5.5787C176.141 5.55444 175.899 5.57865 175.802 5.40886C175.705 5.21482 175.947 5.09357 176.068 4.94804C176.893 3.97783 177.718 3.00762 178.542 2.03741C178.397 1.86763 178.251 1.72212 178.082 1.57659C177.863 1.77063 177.645 1.94037 177.427 2.13441C176.626 2.81356 175.826 3.49268 175.025 4.17182C174.928 4.24459 174.831 4.36591 174.686 4.34166C174.565 4.29315 174.589 4.17185 174.565 4.07483C174.468 2.83781 174.371 1.62512 174.274 0.388107C174.274 0.266831 174.249 0.145555 174.249 0.0242789C174.152 0.0242789 174.031 0 173.934 0C173.813 0 173.716 2.36864e-05 173.594 0.0242789C173.497 1.33406 173.4 2.64377 173.303 3.95355C173.303 4.09908 173.352 4.26889 173.182 4.34166C173.036 4.41442 172.915 4.24459 172.794 4.17182C171.994 3.49268 171.193 2.81356 170.393 2.13441C170.174 1.96462 169.98 1.77065 169.786 1.60087C169.617 1.7464 169.471 1.89191 169.325 2.06169C169.714 2.52254 170.102 2.95916 170.514 3.42001C170.999 3.97788 171.484 4.56 171.969 5.11787C172.188 5.36042 172.139 5.50591 171.799 5.55442C171.727 5.55442 171.654 5.60298 171.557 5.60298C170.854 5.65149 170.126 5.72418 169.422 5.77269C168.865 5.8212 168.307 5.84546 167.749 5.89397C167.749 5.99099 167.725 6.11234 167.725 6.20936C167.725 6.30638 167.725 6.42761 167.749 6.52463C167.967 6.54888 168.185 6.54893 168.404 6.57318C169.495 6.6702 170.587 6.74288 171.702 6.8399C171.848 6.8399 172.042 6.79139 172.091 6.96117C172.139 7.1067 171.994 7.22798 171.897 7.325C171.048 8.31946 170.199 9.314 169.325 10.3085C169.471 10.4782 169.617 10.6238 169.786 10.7693C170.053 10.5267 170.344 10.2842 170.611 10.0416C171.363 9.38674 172.139 8.75613 172.891 8.12549C173.109 7.95571 173.255 7.90722 173.279 8.27105C173.376 9.62934 173.473 10.9876 173.57 12.3459C173.691 12.3459 173.788 12.3702 173.91 12.3702C174.031 12.3702 174.128 12.3701 174.249 12.3459C174.298 11.4727 174.371 10.5995 174.419 9.72636C174.443 9.24126 174.516 8.75615 174.54 8.27105C174.565 7.97999 174.662 7.90717 174.904 8.10121C174.977 8.14972 175.025 8.19826 175.098 8.24677C176.068 9.0957 177.063 9.94461 178.033 10.7693C178.203 10.6238 178.348 10.454 178.494 10.3085C177.597 9.314 176.723 8.29526 175.874 7.25228C175.608 6.93696 175.632 6.86415 176.044 6.8399C177.378 6.71862 178.712 6.62162 180.071 6.50035C180.071 6.40333 180.095 6.2821 180.095 6.18508C180.095 6.0638 180.095 5.96671 180.071 5.86969C179.779 5.84543 179.513 5.82123 179.222 5.79697C178.276 5.7242 177.305 5.65146 176.311 5.5787Z" fill="#D6A177"/>
<path d="M1.43109 16.5625C2.35279 15.2042 3.63833 14.1612 5.26343 13.385C6.88853 12.6331 8.70767 12.2451 10.7208 12.2451C13.6072 12.2451 15.8387 12.8515 17.4152 14.04C18.9918 15.2527 20.1561 16.9263 20.9323 19.085H17.1485C16.9787 18.3574 16.5906 17.6782 16.0084 17.0476C15.4263 16.417 14.6987 15.9077 13.777 15.5196C12.8795 15.1315 11.885 14.9375 10.7936 14.9375C9.314 14.9375 8.05276 15.2042 7.00979 15.7378C5.96682 16.2715 5.19066 17.0234 4.65705 17.9451C4.12343 18.8668 3.85661 19.934 3.85661 21.074C3.85661 22.0685 4.09913 23.0629 4.60849 24.0089C5.11785 24.9791 5.86976 25.7552 6.91273 26.3616C7.95571 26.968 9.24123 27.259 10.7936 27.2105C11.885 27.2105 12.9038 27.0165 13.8012 26.6284C14.6987 26.2403 15.4263 25.731 16.0084 25.1004C16.5906 24.4697 16.9544 23.8148 17.0999 23.1114H20.8838C20.7382 24.2271 20.1804 25.3186 19.1859 26.3616C18.1914 27.4045 16.9544 28.2778 15.4263 28.9326C13.9225 29.5875 12.3459 29.9271 10.6966 29.9271C8.80466 29.9271 7.03406 29.5391 5.3847 28.7629C3.73535 27.9868 2.42552 26.9195 1.45531 25.5612C0.485104 24.2029 0 22.6991 0 21.0497C0.0485104 19.4246 0.509395 17.9208 1.43109 16.5625Z" fill="white"/>
<path d="M43.562 21.3166H26.5105C26.559 22.3353 26.8501 23.3055 27.3837 24.1787C27.8931 25.0761 28.6693 25.8038 29.688 26.3616C30.7067 26.9195 31.9437 27.2106 33.4233 27.2106C34.6845 27.2106 35.8003 26.9923 36.7705 26.5315C37.7407 26.0706 38.4926 25.5128 39.0262 24.8579C39.5599 24.1787 39.8267 23.5481 39.8267 22.9175H43.5862C43.5862 23.9604 43.1739 25.0277 42.3735 26.0949C41.5731 27.1864 40.4088 28.0837 38.8565 28.7871C37.3041 29.5148 35.4849 29.8786 33.3505 29.8786C31.4586 29.8786 29.688 29.5149 28.0629 28.763C26.4378 28.0111 25.1523 26.9681 24.1821 25.6098C23.2119 24.2515 22.751 22.7234 22.751 21.0013C22.751 19.2307 23.2118 17.6783 24.1578 16.32C25.1037 14.9617 26.365 13.9187 27.9658 13.1911C29.5667 12.4634 31.3858 12.0996 33.3505 12.0996C35.3637 12.0996 37.1586 12.4634 38.6866 13.1911C40.2147 13.9187 41.4033 14.9375 42.2522 16.2473C43.1011 17.5571 43.5377 19.0851 43.562 20.8558V21.3166ZM29.2271 15.9562C28.1599 16.7081 27.408 17.7268 26.9471 18.9638H39.5598C39.2203 17.7268 38.5654 16.7323 37.5709 15.9562C36.5765 15.2043 35.1939 14.8162 33.4233 14.8162C31.6769 14.8162 30.2943 15.18 29.2271 15.9562Z" fill="white"/>
<path d="M65.9258 22.0204C66.5807 22.6268 66.896 23.5 66.896 24.64V24.6884C66.896 25.7799 66.6049 26.6774 66.0228 27.3565C65.4407 28.0357 64.519 28.5208 63.282 28.8361C62.0207 29.1514 60.3713 29.2969 58.2854 29.2969H45.7939V12.9004H58.6977H59.2071C61.2203 12.9004 62.7969 13.24 63.8884 13.9192C64.9798 14.5983 65.5134 15.5927 65.5134 16.9025V17.0238C65.5134 17.994 65.3194 18.7702 64.9071 19.3766C64.4947 19.983 63.8641 20.4196 62.9909 20.7349C64.3007 20.9774 65.2951 21.414 65.9258 22.0204ZM49.5778 23.694C49.5535 23.8637 49.5535 24.1306 49.5535 24.4459L49.5778 23.694ZM61.3658 16.1991C61.0262 15.9081 60.5896 15.7383 60.056 15.6656C59.5224 15.5928 58.7462 15.5685 57.7275 15.5685H49.602V19.7161L57.2909 19.7647H57.7518C58.7705 19.7647 59.5467 19.7405 60.056 19.6677C60.5654 19.6192 61.0019 19.4251 61.3658 19.1097C61.7296 18.7944 61.8994 18.2851 61.8994 17.5574C61.8752 16.9268 61.7053 16.4659 61.3658 16.1991ZM60.8565 26.4106C61.4628 26.3378 61.9722 26.1438 62.336 25.8285C62.7241 25.5132 62.9181 25.028 62.9181 24.3489C62.9181 23.6697 62.7241 23.1846 62.336 22.8693C61.9479 22.5782 61.4628 22.3842 60.8565 22.3115C60.2501 22.2387 59.3769 22.2145 58.2369 22.2145H58.1884H49.602V26.5076H58.2612C59.3769 26.5076 60.2501 26.4834 60.8565 26.4106Z" fill="white"/>
<path d="M89.5258 21.3166H72.4744C72.5229 22.3353 72.814 23.3055 73.3476 24.1787C73.857 25.0761 74.6331 25.8038 75.6519 26.3616C76.6706 26.9195 77.9076 27.2106 79.3871 27.2106C80.6484 27.2106 81.7642 26.9923 82.7344 26.5315C83.7046 26.0706 84.4565 25.5128 84.9901 24.8579C85.5237 24.1787 85.7905 23.5481 85.7905 22.9175H89.5501C89.5501 23.9604 89.1378 25.0277 88.3373 26.0949C87.5369 27.1864 86.3727 28.0837 84.8203 28.7871C83.268 29.5148 81.4488 29.8786 79.3144 29.8786C77.4225 29.8786 75.6519 29.5149 74.0268 28.763C72.4017 28.0111 71.1161 26.9681 70.1459 25.6098C69.1757 24.2515 68.7148 22.7234 68.7148 21.0013C68.7148 19.2307 69.1757 17.6783 70.1217 16.32C71.0676 14.9617 72.3289 13.9187 73.9297 13.1911C75.5306 12.4634 77.3497 12.0996 79.3144 12.0996C81.3275 12.0996 83.1224 12.4634 84.6505 13.1911C86.1786 13.9187 87.3671 14.9375 88.2161 16.2473C89.065 17.5571 89.5016 19.0851 89.5258 20.8558V21.3166ZM75.191 15.9562C74.1237 16.7081 73.3719 17.7268 72.911 18.9638H85.5237C85.1841 17.7268 84.5293 16.7323 83.5348 15.9562C82.5403 15.2043 81.1578 14.8162 79.3871 14.8162C77.6408 14.8162 76.2582 15.18 75.191 15.9562Z" fill="white"/>
<path d="M111.405 21.4623C111.356 22.8933 111.016 24.2516 110.386 25.5371C109.755 26.7984 108.833 27.8414 107.645 28.6418C106.456 29.4422 105.05 29.8303 103.449 29.8303C99.9803 29.8303 97.3365 28.9813 95.5174 27.2592V34.9966H91.7578V12.9244H94.8868L95.3719 15.3256C97.2638 13.4822 99.9561 12.5605 103.449 12.5605C105.001 12.5605 106.359 12.9487 107.548 13.7006C108.736 14.4525 109.682 15.4955 110.362 16.8295C111.041 18.1393 111.38 19.643 111.405 21.2681V21.3653V21.4623ZM104.662 26.2647C105.583 25.6584 106.262 24.8822 106.723 23.9848C107.184 23.0631 107.427 22.1899 107.451 21.3167C107.427 20.298 107.208 19.3277 106.772 18.3818C106.335 17.4601 105.68 16.6839 104.759 16.0776C103.837 15.4712 102.697 15.1559 101.314 15.1559C100.174 15.1559 99.1557 15.447 98.2825 16.0048C97.4093 16.587 96.7059 17.3145 96.2208 18.2362C95.7357 19.1579 95.4931 20.104 95.4931 21.0984C95.4931 22.1899 95.7357 23.2086 96.2208 24.1303C96.7059 25.052 97.3851 25.7797 98.2825 26.3376C99.1799 26.8954 100.199 27.1622 101.339 27.1622C102.648 27.1865 103.764 26.8711 104.662 26.2647Z" fill="white"/>
<path d="M130.275 19.5464V12.9004H133.938V29.2727H130.275V22.457H117.493V29.2727H113.83V12.9004H117.493V19.5464H130.275Z" fill="white"/>
<path d="M153.56 18.7216C154.942 19.7404 155.646 21.2442 155.646 23.2574V23.3544C155.646 25.2463 155.088 26.7259 153.972 27.7446C152.856 28.7876 150.965 29.2969 148.272 29.2969C147.714 29.2969 147.302 29.2969 147.035 29.2727V29.2969H136.702L136.605 12.9247H140.365L140.389 17.1936H146.938H146.987C149.994 17.1694 152.177 17.6787 153.56 18.7216ZM149.606 26.2893C150.213 26.168 150.771 25.8769 151.28 25.3918C151.789 24.9067 152.056 24.1306 152.056 23.0876C152.056 22.0446 151.789 21.2927 151.28 20.8319C150.771 20.371 150.213 20.08 149.679 20.0072C149.121 19.9345 148.442 19.886 147.617 19.886H147.569H140.414L140.438 26.4591H147.617C148.345 26.4591 149 26.4106 149.606 26.2893ZM157.441 29.2727V12.9004H161.2V29.2727H157.441Z" fill="white"/>
<path d="M167.652 25.294L180.241 12.9238H184V29.2961H180.241V16.9259L167.652 29.2961H163.893V12.9238H167.652V25.294Z" fill="white"/>
</svg>
