<svg width="260" height="20" viewBox="0 0 260 20" fill="none" xmlns="http://www.w3.org/2000/svg">
<g clip-path="url(#clip0_2047_5220)">
<circle cx="1" cy="10" r="1" fill="#D9D9D9"/>
<circle cx="5" cy="10" r="1" fill="#D9D9D9"/>
<circle cx="9" cy="10" r="1" fill="#D9D9D9"/>
<circle cx="13" cy="10" r="1" fill="#D9D9D9"/>
<circle cx="17" cy="10" r="1" fill="#D9D9D9"/>
<circle cx="21" cy="10" r="1" fill="#D9D9D9"/>
<circle cx="25" cy="10" r="1" fill="#D9D9D9"/>
<circle cx="29" cy="10" r="1" fill="#D9D9D9"/>
<circle cx="33" cy="10" r="1" fill="#D9D9D9"/>
<circle cx="37" cy="10" r="1" fill="#D9D9D9"/>
<circle cx="41" cy="10" r="1" fill="#D9D9D9"/>
<circle cx="45" cy="10" r="1" fill="#D9D9D9"/>
<circle cx="49" cy="10" r="1" fill="#D9D9D9"/>
<circle cx="53" cy="10" r="1" fill="#D9D9D9"/>
<circle cx="57" cy="10" r="1" fill="#D9D9D9"/>
<circle cx="61" cy="10" r="1" fill="#D9D9D9"/>
<circle cx="65" cy="10" r="1" fill="#D9D9D9"/>
<circle cx="69" cy="10" r="1" fill="#D9D9D9"/>
<circle cx="73" cy="10" r="1" fill="#D9D9D9"/>
<circle cx="77" cy="10" r="1" fill="#D9D9D9"/>
<circle cx="81" cy="10" r="1" fill="#D9D9D9"/>
<circle cx="85" cy="10" r="1" fill="#D9D9D9"/>
<circle cx="89" cy="10" r="1" fill="#D9D9D9"/>
<circle cx="93" cy="10" r="1" fill="#D9D9D9"/>
<circle cx="97" cy="10" r="1" fill="#D9D9D9"/>
<circle cx="101" cy="10" r="1" fill="#D9D9D9"/>
<circle cx="105" cy="10" r="1" fill="#D9D9D9"/>
<circle cx="109" cy="10" r="1" fill="#D9D9D9"/>
<circle cx="113" cy="10" r="1" fill="#D9D9D9"/>
<circle cx="117" cy="10" r="1" fill="#D9D9D9"/>
<circle cx="121" cy="10" r="1" fill="#D9D9D9"/>
<circle cx="125" cy="10" r="1" fill="#D9D9D9"/>
<circle cx="129" cy="10" r="1" fill="#D9D9D9"/>
<circle cx="133" cy="10" r="1" fill="#D9D9D9"/>
<circle cx="137" cy="10" r="1" fill="#D9D9D9"/>
<circle cx="141" cy="10" r="1" fill="#D9D9D9"/>
<circle cx="145" cy="10" r="1" fill="#D9D9D9"/>
<circle cx="149" cy="10" r="1" fill="#D9D9D9"/>
<circle cx="153" cy="10" r="1" fill="#D9D9D9"/>
<circle cx="157" cy="10" r="1" fill="#D9D9D9"/>
<circle cx="161" cy="10" r="1" fill="#D9D9D9"/>
<circle cx="165" cy="10" r="1" fill="#D9D9D9"/>
<circle cx="169" cy="10" r="1" fill="#D9D9D9"/>
<circle cx="173" cy="10" r="1" fill="#D9D9D9"/>
<circle cx="177" cy="10" r="1" fill="#D9D9D9"/>
<circle cx="181" cy="10" r="1" fill="#D9D9D9"/>
<circle cx="185" cy="10" r="1" fill="#D9D9D9"/>
<circle cx="189" cy="10" r="1" fill="#D9D9D9"/>
<circle cx="193" cy="10" r="1" fill="#D9D9D9"/>
<circle cx="197" cy="10" r="1" fill="#D9D9D9"/>
<circle cx="201" cy="10" r="1" fill="#D9D9D9"/>
<circle cx="205" cy="10" r="1" fill="#D9D9D9"/>
<circle cx="209" cy="10" r="1" fill="#D9D9D9"/>
<circle cx="213" cy="10" r="1" fill="#D9D9D9"/>
<circle cx="217" cy="10" r="1" fill="#D9D9D9"/>
<circle cx="221" cy="10" r="1" fill="#D9D9D9"/>
<circle cx="225" cy="10" r="1" fill="#D9D9D9"/>
<circle cx="229" cy="10" r="1" fill="#D9D9D9"/>
<circle cx="233" cy="10" r="1" fill="#D9D9D9"/>
<circle cx="237" cy="10" r="1" fill="#D9D9D9"/>
<circle cx="241" cy="10" r="1" fill="#D9D9D9"/>
<circle cx="245" cy="10" r="1" fill="#D9D9D9"/>
<circle cx="249" cy="10" r="1" fill="#D9D9D9"/>
<circle cx="253" cy="10" r="1" fill="#D9D9D9"/>
<circle cx="257" cy="10" r="1" fill="#D9D9D9"/>
</g>
<defs>
<clipPath id="clip0_2047_5220">
<rect width="260" height="20" fill="white"/>
</clipPath>
</defs>
</svg>
