<svg width="30" height="30" viewBox="0 0 30 30" fill="none" xmlns="http://www.w3.org/2000/svg">
<path d="M20.8236 13.5294C20.4119 13.4706 19.8236 13.5293 19.5883 13.1175C19.353 12.6469 19.9413 12.3529 20.2354 11.9999C22.2354 9.647 24.2354 7.29406 26.2354 4.94112C25.8824 4.52935 25.5295 4.17647 25.1178 3.82353C24.5884 4.29412 24.0588 4.70577 23.5294 5.17636C21.5882 6.82341 19.6471 8.47042 17.7059 10.1175C17.4706 10.2939 17.2354 10.5882 16.8825 10.5294C16.5884 10.4117 16.6472 10.1175 16.5884 9.88224C16.3531 6.88224 16.1176 3.94123 15.8824 0.941234C15.8824 0.647116 15.8236 0.352999 15.8236 0.058881C15.5883 0.058881 15.2942 0 15.0589 0C14.7648 0 14.5295 5.7444e-05 14.2354 0.058881C14.0001 3.23535 13.7647 6.41165 13.5294 9.58812C13.5294 9.94106 13.6471 10.3529 13.2353 10.5294C12.8824 10.7058 12.5883 10.2939 12.2942 10.1175C10.353 8.47042 8.41177 6.82341 6.47059 5.17636C5.94118 4.76459 5.47059 4.29418 5 3.88241C4.58824 4.23535 4.23535 4.58824 3.88241 5C4.82359 6.11765 5.76471 7.17653 6.76471 8.29418C7.94118 9.64712 9.11765 11.0589 10.2941 12.4118C10.8235 13.0001 10.7059 13.3529 9.88238 13.4705C9.70591 13.4705 9.52944 13.5883 9.29415 13.5883C7.58826 13.7059 5.82353 13.8822 4.11765 13.9999C2.76471 14.1175 1.41182 14.1764 0.058881 14.294C0.058881 14.5293 0 14.8236 0 15.0589C0 15.2942 5.7444e-05 15.5882 0.058881 15.8235C0.588293 15.8823 1.11768 15.8824 1.64709 15.9412C4.29415 16.1765 6.94126 16.3528 9.64715 16.5881C10.0001 16.5881 10.4706 16.4704 10.5882 16.8822C10.7059 17.2351 10.3531 17.5292 10.1178 17.7645C8.05894 20.1763 6.00006 22.5882 3.88241 25C4.23535 25.4118 4.58824 25.7647 5 26.1176C5.64706 25.5294 6.35303 24.9411 7.00009 24.3529C8.82362 22.7646 10.7059 21.2353 12.5294 19.7059C13.0589 19.2941 13.4119 19.1765 13.4707 20.0589C13.706 23.353 13.9412 26.647 14.1765 29.9411C14.4706 29.9411 14.7059 30 15 30C15.2941 30 15.5295 29.9999 15.8236 29.9411C15.9413 27.8235 16.1177 25.7059 16.2354 23.5883C16.2942 22.4118 16.4706 21.2354 16.5295 20.0589C16.5883 19.353 16.8236 19.1764 17.4118 19.647C17.5883 19.7646 17.706 19.8824 17.8824 20C20.2354 22.0588 22.6471 24.1176 25 26.1176C25.4118 25.7647 25.7648 25.3529 26.1177 25C23.9413 22.5882 21.8236 20.1176 19.7648 17.5882C19.1177 16.8235 19.1765 16.6469 20.1765 16.5881C23.4118 16.2939 26.6471 16.0587 29.9413 15.7646C29.9413 15.5293 30 15.2353 30 15C30 14.7059 30.0001 14.4704 29.9413 14.2351C29.2354 14.1763 28.5883 14.1176 27.8824 14.0588C25.5883 13.8823 23.2354 13.7059 20.8236 13.5294Z" fill="#D6A177"/>
</svg>
