<svg style="display: none;" aria-hidden="true" xmlns="http://www.w3.org/2000/svg" xmlns:xlink="http://www.w3.org/1999/xlink"><symbol viewBox="0 0 28 28" fill="none" id="icon-arrow-right" xmlns="http://www.w3.org/2000/svg">
<path d="M13.9998 23.3335L12.3548 21.6885L18.8648 15.1668L4.6665 15.1668V12.8335L18.8648 12.8335L12.3548 6.31183L13.9998 4.66683L23.3332 14.0002L13.9998 23.3335Z" fill="currentColor"/>
</symbol><symbol viewBox="0 0 30 30" fill="none" id="icon-car" xmlns="http://www.w3.org/2000/svg">
<path d="M17.5 5.12793C17.7532 5.12793 17.9932 5.24275 18.1514 5.44043L22.9014 11.3779H23.75C24.6339 11.3779 25.4814 11.7295 26.1064 12.3545C26.7316 12.9796 27.083 13.8279 27.083 14.7119V21.7119C27.0828 22.172 26.7101 22.5449 26.25 22.5449H24.4766C24.3288 23.1164 24.031 23.6438 23.6064 24.0684C22.9813 24.6934 22.134 25.0449 21.25 25.0449C20.366 25.0449 19.5187 24.6934 18.8936 24.0684C18.469 23.6438 18.1712 23.1164 18.0234 22.5449H11.9766C11.8288 23.1164 11.531 23.6438 11.1064 24.0684C10.4813 24.6934 9.63396 25.0449 8.75 25.0449C7.86604 25.0449 7.01866 24.6934 6.39355 24.0684C5.96914 23.6439 5.67317 23.1162 5.52539 22.5449H3.75C3.2899 22.5449 2.91721 22.172 2.91699 21.7119V12.2119C2.91699 12.106 2.93726 12.0007 2.97656 11.9023L5.47559 5.65234C5.60214 5.33596 5.90925 5.12793 6.25 5.12793H17.5ZM8.75 20.0449C8.30797 20.0449 7.88385 20.2206 7.57129 20.5332C7.25886 20.8457 7.08301 21.27 7.08301 21.7119L7.0918 21.876C7.12962 22.2575 7.29791 22.6161 7.57129 22.8896C7.88385 23.2022 8.30797 23.3779 8.75 23.3779C9.19203 23.3779 9.61615 23.2022 9.92871 22.8896C10.241 22.5772 10.4169 22.1537 10.417 21.7119C10.417 21.27 10.2411 20.8457 9.92871 20.5332C9.61615 20.2206 9.19203 20.0449 8.75 20.0449ZM21.25 20.0449C20.808 20.0449 20.3838 20.2206 20.0713 20.5332C19.7589 20.8457 19.583 21.27 19.583 21.7119C19.5831 22.1537 19.759 22.5772 20.0713 22.8896C20.3838 23.2022 20.808 23.3779 21.25 23.3779C21.692 23.3779 22.1161 23.2022 22.4287 22.8896C22.741 22.5772 22.9169 22.1537 22.917 21.7119C22.917 21.27 22.7411 20.8457 22.4287 20.5332C22.1161 20.2206 21.692 20.0449 21.25 20.0449ZM4.58301 20.8779H5.52344C5.67118 20.3065 5.96906 19.779 6.39355 19.3545C7.01865 18.7295 7.86608 18.3779 8.75 18.3779C9.63392 18.3779 10.4814 18.7296 11.1064 19.3545C11.5309 19.779 11.8288 20.3065 11.9766 20.8779H18.0234C18.1712 20.3065 18.4691 19.779 18.8936 19.3545C19.5186 18.7295 20.3661 18.3779 21.25 18.3779C22.1339 18.3779 22.9814 18.7296 23.6064 19.3545C24.0309 19.779 24.3288 20.3065 24.4766 20.8779H25.417V14.7119C25.417 14.27 25.2411 13.8457 24.9287 13.5332C24.6161 13.2206 24.192 13.0449 23.75 13.0449H4.58301V20.8779ZM4.98145 11.3779H14.167V6.79492H6.81348L4.98145 11.3779ZM15.833 11.3779H20.7656L17.0986 6.79492H15.833V11.3779Z" fill="currentColor"/>
</symbol><symbol viewBox="0 0 30 30" fill="none" id="icon-human" xmlns="http://www.w3.org/2000/svg">
<path d="M15.0293 9.00098C15.0475 9.00153 15.0657 9.00235 15.084 9.00391C15.103 9.0055 15.1218 9.00807 15.1406 9.01074C15.1484 9.01185 15.1563 9.01238 15.1641 9.01367C15.1726 9.01509 15.181 9.01693 15.1895 9.01855C15.1999 9.02056 15.2104 9.02208 15.2207 9.02441L15.2637 9.03516C15.2802 9.03967 15.2963 9.04548 15.3125 9.05078C15.3196 9.05313 15.3269 9.05511 15.334 9.05762C15.3921 9.07814 15.4469 9.10467 15.499 9.13477C15.5102 9.14123 15.5222 9.14641 15.5332 9.15332C15.562 9.17145 15.5896 9.1911 15.6162 9.21191C15.6289 9.22183 15.6401 9.23357 15.6523 9.24414C15.6665 9.25639 15.6809 9.26826 15.6943 9.28125C15.6985 9.28525 15.703 9.28889 15.707 9.29297L19.29 12.876L22.8164 14.0518C23.3402 14.2265 23.6229 14.7926 23.4482 15.3164C23.2735 15.8401 22.7074 16.1229 22.1836 15.9482L18.4336 14.6982C18.2865 14.6491 18.1527 14.5667 18.043 14.457L15.666 12.0801L14.8203 17.1562L18.207 20.543L18.3115 20.665C18.3428 20.7085 18.3705 20.7547 18.3945 20.8027L20.8945 25.8027C21.1415 26.2967 20.9412 26.8975 20.4473 27.1445C19.9533 27.3915 19.3525 27.1912 19.1055 26.6973L16.6777 21.8418L13.043 18.207C12.8147 17.9787 12.7107 17.6544 12.7637 17.3359L13.7627 11.3379L10.6172 12.125L8.33203 15.5547C8.02567 16.0142 7.40482 16.1384 6.94531 15.832C6.48584 15.5257 6.36167 14.9048 6.66797 14.4453L9.16797 10.6953L9.22266 10.6201C9.35861 10.4523 9.5467 10.3331 9.75781 10.2803L14.7578 9.03027H14.7568C14.7984 9.01983 14.8407 9.01186 14.8838 9.00684H14.8857C14.8886 9.0065 14.8916 9.00617 14.8945 9.00586C14.9226 9.00289 14.9509 9.00153 14.9795 9.00098C14.9961 9.00063 15.0127 9.00049 15.0293 9.00098ZM11.7002 20.6504C12.0315 20.2086 12.6578 20.119 13.0996 20.4502C13.5414 20.7815 13.631 21.4078 13.2998 21.8496L9.5498 26.8496C9.21846 27.2913 8.59219 27.381 8.15039 27.0498C7.70866 26.7185 7.61902 26.0922 7.9502 25.6504L11.7002 20.6504ZM16.4727 2.76074C16.9876 2.81193 17.4717 3.04005 17.8408 3.40918C18.2628 3.83114 18.5 4.40326 18.5 5C18.5 5.59674 18.2628 6.16886 17.8408 6.59082C17.4189 7.01275 16.8467 7.25 16.25 7.25C15.6533 7.24998 15.0811 7.01276 14.6592 6.59082C14.2372 6.16887 14 5.59672 14 5C14 4.40328 14.2372 3.83113 14.6592 3.40918C15.0811 2.98724 15.6533 2.75002 16.25 2.75L16.4727 2.76074Z" fill="currentColor"/>
</symbol><symbol viewBox="0 0 30 30" fill="none" id="icon-star" xmlns="http://www.w3.org/2000/svg">
<path d="M20.8236 13.5294C20.4119 13.4706 19.8236 13.5293 19.5883 13.1175C19.353 12.6469 19.9413 12.3529 20.2354 11.9999C22.2354 9.647 24.2354 7.29406 26.2354 4.94112C25.8824 4.52935 25.5295 4.17647 25.1178 3.82353C24.5884 4.29412 24.0588 4.70577 23.5294 5.17636C21.5882 6.82341 19.6471 8.47042 17.7059 10.1175C17.4706 10.2939 17.2354 10.5882 16.8825 10.5294C16.5884 10.4117 16.6472 10.1175 16.5884 9.88224C16.3531 6.88224 16.1176 3.94123 15.8824 0.941234C15.8824 0.647116 15.8236 0.352999 15.8236 0.058881C15.5883 0.058881 15.2942 0 15.0589 0C14.7648 0 14.5295 5.7444e-05 14.2354 0.058881C14.0001 3.23535 13.7647 6.41165 13.5294 9.58812C13.5294 9.94106 13.6471 10.3529 13.2353 10.5294C12.8824 10.7058 12.5883 10.2939 12.2942 10.1175C10.353 8.47042 8.41177 6.82341 6.47059 5.17636C5.94118 4.76459 5.47059 4.29418 5 3.88241C4.58824 4.23535 4.23535 4.58824 3.88241 5C4.82359 6.11765 5.76471 7.17653 6.76471 8.29418C7.94118 9.64712 9.11765 11.0589 10.2941 12.4118C10.8235 13.0001 10.7059 13.3529 9.88238 13.4705C9.70591 13.4705 9.52944 13.5883 9.29415 13.5883C7.58826 13.7059 5.82353 13.8822 4.11765 13.9999C2.76471 14.1175 1.41182 14.1764 0.058881 14.294C0.058881 14.5293 0 14.8236 0 15.0589C0 15.2942 5.7444e-05 15.5882 0.058881 15.8235C0.588293 15.8823 1.11768 15.8824 1.64709 15.9412C4.29415 16.1765 6.94126 16.3528 9.64715 16.5881C10.0001 16.5881 10.4706 16.4704 10.5882 16.8822C10.7059 17.2351 10.3531 17.5292 10.1178 17.7645C8.05894 20.1763 6.00006 22.5882 3.88241 25C4.23535 25.4118 4.58824 25.7647 5 26.1176C5.64706 25.5294 6.35303 24.9411 7.00009 24.3529C8.82362 22.7646 10.7059 21.2353 12.5294 19.7059C13.0589 19.2941 13.4119 19.1765 13.4707 20.0589C13.706 23.353 13.9412 26.647 14.1765 29.9411C14.4706 29.9411 14.7059 30 15 30C15.2941 30 15.5295 29.9999 15.8236 29.9411C15.9413 27.8235 16.1177 25.7059 16.2354 23.5883C16.2942 22.4118 16.4706 21.2354 16.5295 20.0589C16.5883 19.353 16.8236 19.1764 17.4118 19.647C17.5883 19.7646 17.706 19.8824 17.8824 20C20.2354 22.0588 22.6471 24.1176 25 26.1176C25.4118 25.7647 25.7648 25.3529 26.1177 25C23.9413 22.5882 21.8236 20.1176 19.7648 17.5882C19.1177 16.8235 19.1765 16.6469 20.1765 16.5881C23.4118 16.2939 26.6471 16.0587 29.9413 15.7646C29.9413 15.5293 30 15.2353 30 15C30 14.7059 30.0001 14.4704 29.9413 14.2351C29.2354 14.1763 28.5883 14.1176 27.8824 14.0588C25.5883 13.8823 23.2354 13.7059 20.8236 13.5294Z" fill="currentColor"/>
</symbol></svg>