<svg width="439" height="77" viewBox="0 0 439 77" fill="none" xmlns="http://www.w3.org/2000/svg">
<path d="M26.8955 11.21H21.2002V5.61523H6.72168V24.3848H21.2002V18.7598H26.8955V24.375L26.8643 24.3848H26.8848L21.2002 30H0V5.61523L5.68457 0H26.8955V11.21ZM39.249 23.0098L55.3926 0H63.4531V30H56.9521V6.99023L40.8086 30H32.7471V0H39.249V23.0098ZM96.2012 11.21H90.5166V5.61523H76.0264V24.3848H90.5166V18.7588H96.2012V24.374L96.1797 24.3848H96.2012L90.5166 30H69.3057V5.61523L75.001 0H96.2012V11.21ZM159.269 5.19141H141.785V12.1309H156.536V16.8877H141.785V24.6025H159.269V30H135.367V0H159.269V5.19141ZM322.358 5.19141H304.875V12.1299H319.626V16.8877H304.875V24.6016H322.358V30H298.457V0H322.358V5.19141ZM129.514 5.61523H119.148V29.9902H112.417V5.61523H102.053V0H129.514V5.61523ZM182.479 25.585L191.021 0H200.444V29.9902H194.194V5.95703L186.217 29.9902H178.71L170.722 5.95703V29.9902H164.482V0H173.937L182.479 25.585ZM238.395 29.9902H231.537L229.37 24.5088H213.844L211.677 29.9902H204.819L217.268 0H225.946L238.395 29.9902ZM286.922 24.333H292.606V29.9902H255.954V24.333H261.073L264.371 0H286.922V24.333ZM358.114 29.9902H351.519V5.61523H340.745L332.81 29.9902L326.486 29.9482L335.668 0H358.114V29.9902ZM396.001 29.9902H389.144L386.977 24.5088H371.45L369.283 29.9902H362.426L374.874 0H383.553L396.001 29.9902ZM267.732 24.333H280.421V5.60547H270.297L267.732 24.333ZM215.624 19.8867H227.601L221.612 4.8916L215.624 19.8867ZM373.23 19.8867H385.207L379.219 4.8916L373.23 19.8867Z" fill="white"/>
<path d="M9.72 71.528V70.016C4.536 69.896 1.224 67.208 1.224 62.624C1.224 58.088 4.512 55.328 9.72 55.208V53.72H11.688V55.208C16.896 55.304 20.184 58.064 20.184 62.624C20.184 67.184 16.92 69.92 11.688 70.016V71.528H9.72ZM9.72 68.432V56.792C5.784 56.888 3.288 58.952 3.288 62.624C3.288 66.32 5.832 68.336 9.72 68.432ZM11.688 68.432C15.696 68.336 18.144 66.296 18.144 62.624C18.144 58.928 15.576 56.864 11.688 56.792V68.432ZM34.6944 64.016C34.6944 64.424 34.6704 64.904 34.5984 65.384H24.3744C24.5424 68.36 26.6304 69.68 29.2464 69.68C31.2624 69.68 32.6064 68.792 33.5424 67.904L34.4784 69.248C32.7744 70.712 31.0464 71.168 29.2464 71.168C24.7344 71.168 22.3104 68.576 22.3104 64.76C22.3104 61.04 24.6624 58.352 28.8144 58.352C32.4144 58.352 34.6944 60.488 34.6944 64.016ZM28.8144 59.792C26.2944 59.792 24.5664 61.304 24.3984 64.016H32.6304C32.6544 63.896 32.6544 63.776 32.6544 63.656C32.6544 61.304 31.1904 59.792 28.8144 59.792ZM48.1569 69.656H50.1489V73.88H48.5889L48.4929 71H37.3089L37.2129 73.88H35.6529V69.656H37.4289C37.8609 69.104 39.2529 66.704 39.2049 58.52H48.1569V69.656ZM46.1889 69.656V59.864H41.0049C41.0049 66.8 39.8289 69.056 39.5409 69.656H46.1889ZM63.8273 64.016C63.8273 64.424 63.8033 64.904 63.7313 65.384H53.5073C53.6753 68.36 55.7633 69.68 58.3793 69.68C60.3953 69.68 61.7393 68.792 62.6753 67.904L63.6113 69.248C61.9073 70.712 60.1793 71.168 58.3793 71.168C53.8673 71.168 51.4433 68.576 51.4433 64.76C51.4433 61.04 53.7953 58.352 57.9473 58.352C61.5473 58.352 63.8273 60.488 63.8273 64.016ZM57.9473 59.792C55.4273 59.792 53.6992 61.304 53.5312 64.016H61.7633C61.7873 63.896 61.7873 63.776 61.7873 63.656C61.7873 61.304 60.3233 59.792 57.9473 59.792ZM73.4698 58.352C77.5018 58.352 79.7578 61.184 79.7578 64.76C79.7578 68.336 77.4778 71.168 73.4458 71.168C71.3338 71.168 69.5098 70.328 68.5258 68.792V75.08H66.5338V58.52H68.2378L68.4538 60.992C69.4378 59.168 71.5018 58.352 73.4698 58.352ZM73.0858 69.536C75.8458 69.536 77.7178 67.688 77.7178 64.76C77.7178 61.832 75.8458 59.984 73.1098 59.984C70.5178 59.984 68.4778 61.904 68.4778 64.76C68.4778 67.52 70.4698 69.536 73.0858 69.536ZM92.9839 58.52H94.8079V71H93.0079L92.8399 68.312C91.8559 70.376 89.8399 71.192 87.7519 71.192C83.8639 71.192 81.5839 68.456 81.5839 64.808C81.5839 61.112 83.9359 58.328 87.8479 58.328C90.1279 58.328 91.9759 59.288 92.8639 61.04L92.9839 58.52ZM88.2799 69.536C90.7759 69.536 92.8639 67.664 92.8639 64.784C92.8639 61.952 90.8719 59.984 88.2799 59.984C85.5439 59.984 83.6479 61.784 83.6479 64.784C83.6479 67.712 85.5439 69.536 88.2799 69.536ZM98.1019 71.096C97.6219 71.096 97.1419 71.048 96.7819 71L96.8299 69.464C97.0699 69.512 97.3339 69.536 97.5499 69.536C99.5659 69.536 100.046 67.88 100.214 63.488C100.262 62.096 100.214 60.392 100.214 58.52H109.454V71H107.486V59.936H102.206C102.206 61.304 102.182 62.528 102.158 63.632C102.014 68.648 101.126 71.096 98.1019 71.096ZM113.034 71V58.52H115.026V63.224H118.962C121.698 63.224 123.594 64.616 123.594 67.088C123.594 69.512 121.818 71 118.938 71H113.034ZM115.026 69.68H118.602C120.474 69.68 121.602 68.816 121.602 67.088C121.602 65.408 120.474 64.568 118.602 64.568H115.026V69.68ZM126.089 71V58.52H128.081V63.944H135.209V58.52H137.201V71H135.209V65.528H128.081V71H126.089ZM141.048 71V58.52H143.04V63.248H146.976C149.664 63.248 151.56 64.616 151.56 67.088C151.56 69.512 149.784 71 146.952 71H141.048ZM154.056 71V58.52H156.024V71H154.056ZM143.04 69.68H146.616C148.488 69.68 149.616 68.816 149.616 67.088C149.616 65.408 148.488 64.568 146.616 64.568H143.04V69.68ZM162.362 56.12V54.944H168.698V56.12H162.362ZM159.674 71V58.52H161.57V64.808C161.546 66.008 161.522 67.232 161.474 68.384L161.522 68.408L169.034 58.52H170.834V71H168.962V65.216C168.986 63.944 168.986 62.504 169.058 61.04L169.01 61.016L161.498 71H159.674ZM191.266 69.656H193.258V73.88H191.698L191.602 71H180.418L180.322 73.88H178.762V69.656H180.538C180.97 69.104 182.362 66.704 182.314 58.52H191.266V69.656ZM189.298 69.656V59.864H184.114C184.114 66.8 182.938 69.056 182.65 69.656H189.298ZM206.937 64.016C206.937 64.424 206.913 64.904 206.841 65.384H196.617C196.785 68.36 198.873 69.68 201.489 69.68C203.505 69.68 204.849 68.792 205.785 67.904L206.721 69.248C205.017 70.712 203.289 71.168 201.489 71.168C196.977 71.168 194.553 68.576 194.553 64.76C194.553 61.04 196.905 58.352 201.057 58.352C204.657 58.352 206.937 60.488 206.937 64.016ZM201.057 59.792C198.537 59.792 196.809 61.304 196.641 64.016H204.873C204.897 63.896 204.897 63.776 204.897 63.656C204.897 61.304 203.433 59.792 201.057 59.792ZM217.371 64.52C218.667 64.688 220.275 65.576 220.275 67.664C220.275 69.752 218.643 71 216.243 71H209.643V58.52H215.955C218.163 58.52 219.699 59.624 219.699 61.64C219.699 63.392 218.475 64.208 217.371 64.52ZM211.611 59.816V63.992H215.619C216.987 63.992 217.779 63.08 217.779 61.88C217.779 60.584 216.819 59.816 215.547 59.816H211.611ZM215.931 69.704C217.299 69.704 218.259 68.84 218.259 67.472C218.259 66.176 217.371 65.24 215.835 65.24H211.611V69.704H215.931ZM234.616 64.016C234.616 64.424 234.592 64.904 234.52 65.384H224.296C224.464 68.36 226.552 69.68 229.168 69.68C231.184 69.68 232.528 68.792 233.464 67.904L234.4 69.248C232.696 70.712 230.968 71.168 229.168 71.168C224.656 71.168 222.232 68.576 222.232 64.76C222.232 61.04 224.584 58.352 228.736 58.352C232.336 58.352 234.616 60.488 234.616 64.016ZM228.736 59.792C226.216 59.792 224.488 61.304 224.32 64.016H232.552C232.576 63.896 232.576 63.776 232.576 63.656C232.576 61.304 231.112 59.792 228.736 59.792ZM237.157 71.096C236.677 71.096 236.197 71.048 235.837 71L235.885 69.464C236.125 69.512 236.389 69.536 236.605 69.536C238.621 69.536 239.101 67.88 239.269 63.488C239.317 62.096 239.269 60.392 239.269 58.52H248.509V71H246.541V59.936H241.261C241.261 61.304 241.237 62.528 241.213 63.632C241.069 68.648 240.181 71.096 237.157 71.096ZM257.945 71.192C254.057 71.192 251.225 68.696 251.225 64.784C251.225 60.824 254.033 58.352 257.945 58.352C261.809 58.352 264.641 60.872 264.641 64.784C264.641 68.696 261.809 71.192 257.945 71.192ZM257.945 69.536C260.633 69.536 262.625 67.76 262.625 64.784C262.625 61.808 260.633 59.984 257.945 59.984C255.233 59.984 253.265 61.808 253.265 64.784C253.265 67.76 255.233 69.536 257.945 69.536ZM267.395 71V58.52H278.435V71H276.467V59.984H269.363V71H267.395ZM293.609 64.016C293.609 64.424 293.585 64.904 293.513 65.384H283.289C283.457 68.36 285.545 69.68 288.161 69.68C290.177 69.68 291.521 68.792 292.457 67.904L293.393 69.248C291.689 70.712 289.961 71.168 288.161 71.168C283.649 71.168 281.225 68.576 281.225 64.76C281.225 61.04 283.577 58.352 287.729 58.352C291.329 58.352 293.609 60.488 293.609 64.016ZM287.729 59.792C285.209 59.792 283.48 61.304 283.312 64.016H291.545C291.569 63.896 291.569 63.776 291.569 63.656C291.569 61.304 290.105 59.792 287.729 59.792ZM303.251 58.352C307.283 58.352 309.539 61.184 309.539 64.76C309.539 68.336 307.259 71.168 303.227 71.168C301.115 71.168 299.291 70.328 298.307 68.792V75.08H296.315V58.52H298.019L298.235 60.992C299.219 59.168 301.283 58.352 303.251 58.352ZM302.867 69.536C305.627 69.536 307.499 67.688 307.499 64.76C307.499 61.832 305.627 59.984 302.891 59.984C300.299 59.984 298.259 61.904 298.259 64.76C298.259 67.52 300.251 69.536 302.867 69.536Z" fill="white"/>
</svg>
