<svg width="288" height="264" viewBox="0 0 288 264" fill="none" xmlns="http://www.w3.org/2000/svg">
<path d="M250.577 106.078C250.288 106.036 249.876 106.078 249.712 105.785C249.547 105.451 249.959 105.242 250.165 104.991C251.565 103.318 252.965 101.646 254.365 99.9735C254.118 99.6809 253.871 99.4301 253.582 99.1792C253.212 99.5137 252.841 99.8063 252.471 100.141C251.112 101.311 249.753 102.482 248.394 103.653C248.229 103.778 248.065 103.987 247.818 103.945C247.612 103.862 247.653 103.653 247.612 103.486C247.447 101.353 247.282 99.2629 247.118 97.1305C247.118 96.9215 247.077 96.7124 247.077 96.5034C246.912 96.5034 246.706 96.4615 246.541 96.4615C246.335 96.4615 246.171 96.4616 245.965 96.5034C245.8 98.7611 245.635 101.019 245.471 103.276C245.471 103.527 245.553 103.82 245.265 103.945C245.018 104.071 244.812 103.778 244.606 103.653C243.247 102.482 241.888 101.311 240.529 100.141C240.159 99.8481 239.829 99.5137 239.5 99.221C239.212 99.4719 238.965 99.7227 238.718 100.015C239.377 100.81 240.035 101.562 240.735 102.357C241.559 103.318 242.382 104.322 243.206 105.283C243.576 105.702 243.494 105.952 242.918 106.036C242.794 106.036 242.671 106.12 242.506 106.12C241.312 106.203 240.076 106.329 238.882 106.412C237.935 106.496 236.988 106.538 236.041 106.621C236.041 106.789 236 106.998 236 107.165C236 107.332 236 107.541 236.041 107.708C236.412 107.75 236.782 107.75 237.153 107.792C239.006 107.959 240.859 108.085 242.753 108.252C243 108.252 243.329 108.168 243.412 108.461C243.494 108.712 243.247 108.921 243.082 109.088C241.641 110.802 240.2 112.517 238.718 114.231C238.965 114.523 239.212 114.774 239.5 115.025C239.953 114.607 240.447 114.189 240.9 113.771C242.177 112.642 243.494 111.555 244.771 110.468C245.141 110.175 245.388 110.092 245.429 110.719C245.594 113.06 245.759 115.401 245.924 117.743C246.129 117.743 246.294 117.785 246.5 117.785C246.706 117.785 246.871 117.785 247.077 117.743C247.159 116.238 247.282 114.733 247.365 113.227C247.406 112.391 247.529 111.555 247.571 110.719C247.612 110.217 247.777 110.092 248.188 110.426C248.312 110.51 248.394 110.593 248.518 110.677C250.165 112.14 251.853 113.604 253.5 115.025C253.788 114.774 254.035 114.482 254.282 114.231C252.759 112.517 251.277 110.761 249.835 108.963C249.382 108.419 249.424 108.294 250.124 108.252C252.388 108.043 254.653 107.876 256.959 107.667C256.959 107.499 257 107.29 257 107.123C257 106.914 257 106.747 256.959 106.579C256.465 106.538 256.012 106.496 255.518 106.454C253.912 106.329 252.265 106.203 250.577 106.078Z" fill="#D0CEC1"/>
<path d="M100.577 141.616C100.288 141.574 99.8765 141.616 99.7118 141.324C99.5471 140.989 99.9589 140.78 100.165 140.529C101.565 138.857 102.965 137.184 104.365 135.512C104.118 135.219 103.871 134.969 103.582 134.718C103.212 135.052 102.841 135.345 102.471 135.679C101.112 136.85 99.753 138.021 98.3942 139.191C98.2295 139.317 98.0648 139.526 97.8177 139.484C97.6118 139.4 97.653 139.191 97.6118 139.024C97.4471 136.892 97.2824 134.801 97.1176 132.669C97.1176 132.46 97.0765 132.251 97.0765 132.042C96.9118 132.042 96.7059 132 96.5412 132C96.3353 132 96.1707 132 95.9648 132.042C95.8001 134.3 95.6353 136.557 95.4706 138.815C95.4706 139.066 95.5529 139.359 95.2647 139.484C95.0176 139.609 94.8118 139.317 94.6059 139.191C93.2471 138.021 91.8882 136.85 90.5294 135.679C90.1588 135.387 89.8294 135.052 89.5 134.759C89.2118 135.01 88.9647 135.261 88.7177 135.554C89.3765 136.348 90.0353 137.101 90.7353 137.895C91.5588 138.857 92.3824 139.86 93.2059 140.822C93.5765 141.24 93.4941 141.491 92.9177 141.574C92.7941 141.574 92.6706 141.658 92.5059 141.658C91.3118 141.742 90.0765 141.867 88.8824 141.951C87.9353 142.034 86.9883 142.076 86.0412 142.16C86.0412 142.327 86 142.536 86 142.703C86 142.871 86 143.08 86.0412 143.247C86.4118 143.289 86.7824 143.289 87.153 143.331C89.0059 143.498 90.8589 143.623 92.753 143.79C93.0001 143.79 93.3294 143.707 93.4118 143.999C93.4941 144.25 93.2471 144.459 93.0824 144.626C91.6413 146.341 90.2 148.055 88.7177 149.769C88.9647 150.062 89.2118 150.313 89.5 150.564C89.9529 150.145 90.4471 149.727 90.9001 149.309C92.1765 148.18 93.4941 147.093 94.7706 146.006C95.1412 145.714 95.3883 145.63 95.4295 146.257C95.5942 148.599 95.7589 150.94 95.9236 153.281C96.1295 153.281 96.2941 153.323 96.5 153.323C96.7059 153.323 96.8706 153.323 97.0765 153.281C97.1589 151.776 97.2824 150.271 97.3647 148.766C97.4059 147.93 97.5295 147.093 97.5706 146.257C97.6118 145.756 97.7765 145.63 98.1883 145.964C98.3118 146.048 98.3942 146.132 98.5177 146.215C100.165 147.679 101.853 149.142 103.5 150.564C103.788 150.313 104.035 150.02 104.282 149.769C102.759 148.055 101.277 146.299 99.8353 144.501C99.3824 143.958 99.4235 143.832 100.124 143.79C102.388 143.581 104.653 143.414 106.959 143.205C106.959 143.038 107 142.829 107 142.662C107 142.452 107 142.285 106.959 142.118C106.465 142.076 106.012 142.034 105.518 141.993C103.912 141.867 102.265 141.742 100.577 141.616Z" fill="#D0CEC1"/>
<path d="M188.6 173.969C188.133 173.902 187.467 173.969 187.2 173.495C186.933 172.954 187.6 172.615 187.933 172.209C190.2 169.501 192.467 166.794 194.733 164.086C194.333 163.612 193.933 163.206 193.467 162.8C192.867 163.342 192.267 163.815 191.667 164.357C189.467 166.252 187.267 168.148 185.067 170.043C184.8 170.246 184.533 170.585 184.133 170.517C183.8 170.381 183.867 170.043 183.8 169.772C183.533 166.32 183.267 162.935 183 159.483C183 159.145 182.933 158.806 182.933 158.468C182.667 158.468 182.333 158.4 182.067 158.4C181.733 158.4 181.467 158.4 181.133 158.468C180.867 162.123 180.6 165.778 180.333 169.434C180.333 169.84 180.467 170.314 180 170.517C179.6 170.72 179.267 170.246 178.933 170.043C176.733 168.148 174.533 166.252 172.333 164.357C171.733 163.883 171.2 163.342 170.667 162.868C170.2 163.274 169.8 163.68 169.4 164.154C170.467 165.44 171.533 166.659 172.667 167.945C174 169.502 175.333 171.126 176.667 172.683C177.267 173.36 177.133 173.766 176.2 173.901C176 173.901 175.8 174.037 175.533 174.037C173.6 174.172 171.6 174.375 169.667 174.511C168.133 174.646 166.6 174.714 165.067 174.849C165.067 175.12 165 175.459 165 175.729C165 176 165 176.338 165.067 176.609C165.667 176.677 166.267 176.677 166.867 176.745C169.867 177.015 172.867 177.218 175.933 177.489C176.333 177.489 176.867 177.354 177 177.828C177.133 178.234 176.733 178.572 176.467 178.843C174.133 181.618 171.8 184.394 169.4 187.169C169.8 187.643 170.2 188.049 170.667 188.455C171.4 187.778 172.2 187.101 172.933 186.425C175 184.597 177.133 182.837 179.2 181.077C179.8 180.603 180.2 180.468 180.267 181.483C180.533 185.274 180.8 189.065 181.067 192.855C181.4 192.855 181.667 192.923 182 192.923C182.333 192.923 182.6 192.923 182.933 192.855C183.067 190.418 183.267 187.982 183.4 185.545C183.467 184.191 183.667 182.837 183.733 181.483C183.8 180.671 184.067 180.468 184.733 181.009C184.933 181.145 185.067 181.28 185.267 181.415C187.933 183.785 190.667 186.154 193.333 188.455C193.8 188.049 194.2 187.575 194.6 187.169C192.133 184.394 189.733 181.551 187.4 178.64C186.667 177.76 186.733 177.557 187.867 177.489C191.533 177.151 195.2 176.88 198.933 176.541C198.933 176.271 199 175.932 199 175.662C199 175.323 199 175.052 198.933 174.781C198.133 174.714 197.4 174.646 196.6 174.578C194 174.375 191.333 174.172 188.6 173.969Z" fill="#D0CEC1"/>
<path d="M33.1883 174.208C32.9275 174.17 32.5549 174.208 32.4059 173.943C32.2569 173.641 32.6295 173.452 32.8157 173.225C34.0824 171.711 35.3491 170.198 36.6157 168.685C36.3922 168.42 36.1687 168.193 35.9079 167.967C35.5726 168.269 35.2373 168.534 34.902 168.836C33.6725 169.896 32.4432 170.955 31.2138 172.014C31.0647 172.127 30.9158 172.317 30.6922 172.279C30.506 172.203 30.5432 172.014 30.506 171.863C30.3569 169.933 30.2078 168.042 30.0588 166.113C30.0588 165.924 30.0216 165.735 30.0216 165.546C29.8726 165.546 29.6863 165.508 29.5373 165.508C29.351 165.508 29.202 165.508 29.0158 165.546C28.8667 167.588 28.7176 169.631 28.5686 171.674C28.5686 171.901 28.6431 172.165 28.3824 172.279C28.1588 172.392 27.9726 172.127 27.7863 172.014C26.5569 170.955 25.3275 169.896 24.098 168.836C23.7627 168.572 23.4647 168.269 23.1667 168.004C22.9059 168.231 22.6824 168.458 22.4589 168.723C23.0549 169.442 23.651 170.123 24.2843 170.841C25.0294 171.712 25.7745 172.619 26.5196 173.489C26.8549 173.868 26.7804 174.095 26.2588 174.17C26.1471 174.17 26.0353 174.246 25.8863 174.246C24.8059 174.322 23.6882 174.435 22.6078 174.511C21.751 174.586 20.8942 174.624 20.0373 174.7C20.0373 174.851 20 175.04 20 175.192C20 175.343 20 175.532 20.0373 175.683C20.3726 175.721 20.7079 175.721 21.0432 175.759C22.7196 175.91 24.3961 176.024 26.1099 176.175C26.3334 176.175 26.6314 176.099 26.7059 176.364C26.7804 176.591 26.5569 176.78 26.4079 176.932C25.104 178.483 23.8 180.034 22.4589 181.585C22.6824 181.849 22.9059 182.076 23.1667 182.303C23.5765 181.925 24.0236 181.547 24.4334 181.168C25.5883 180.147 26.7804 179.164 27.9353 178.18C28.2706 177.915 28.4942 177.84 28.5314 178.407C28.6804 180.525 28.8294 182.644 28.9785 184.762C29.1647 184.762 29.3137 184.8 29.5 184.8C29.6863 184.8 29.8353 184.8 30.0216 184.762C30.0961 183.4 30.2079 182.039 30.2824 180.677C30.3196 179.92 30.4314 179.164 30.4687 178.407C30.5059 177.953 30.6549 177.84 31.0275 178.142C31.1393 178.218 31.2138 178.294 31.3255 178.369C32.8157 179.693 34.3431 181.017 35.8333 182.303C36.0941 182.076 36.3177 181.812 36.5412 181.585C35.1628 180.034 33.8216 178.445 32.5177 176.818C32.1079 176.326 32.1451 176.213 32.7785 176.175C34.8275 175.986 36.8765 175.835 38.9628 175.646C38.9628 175.494 39 175.305 39 175.154C39 174.965 39.0001 174.813 38.9628 174.662C38.5157 174.624 38.1059 174.586 37.6589 174.549C36.2059 174.435 34.7157 174.322 33.1883 174.208Z" fill="#D0CEC1"/>
</svg>
