<svg width="21" height="21" viewBox="0 0 21 21" fill="none" xmlns="http://www.w3.org/2000/svg">
<circle cx="10.2" cy="10.2" r="10.2" fill="#D0CEC1"/>
<g clip-path="url(#clip0_4012_1217)">
<path d="M13.3868 5.41895C14.0288 5.84702 14.5778 6.40019 15.0011 7.04537C15.4243 7.69054 15.7131 8.41446 15.8501 9.17382C16.0887 9.32808 16.2817 9.5433 16.4091 9.79721C16.5365 10.0511 16.5938 10.3345 16.575 10.6179C16.5561 10.9014 16.4618 11.1747 16.3019 11.4095C16.1419 11.6442 15.9221 11.832 15.6652 11.9533C15.2936 13.1099 14.5644 14.1187 13.5828 14.8343C12.6011 15.55 11.4176 15.9356 10.2028 15.9356C8.98798 15.9356 7.80451 15.55 6.82285 14.8343C5.8412 14.1187 5.11204 13.1099 4.74039 11.9533C4.4835 11.832 4.2637 11.6442 4.10375 11.4095C3.9438 11.1747 3.84952 10.9014 3.83066 10.6179C3.81181 10.3345 3.86907 10.0511 3.99651 9.79721C4.12395 9.5433 4.31695 9.32808 4.55552 9.17382C4.6898 8.42952 4.96992 7.71911 5.37975 7.08345C5.78959 6.4478 6.32106 5.89945 6.94359 5.46995" stroke="#5D625B" stroke-width="1.275" stroke-linecap="round" stroke-linejoin="round"/>
<path d="M8.60596 12.75C8.8137 12.962 9.06167 13.1305 9.33534 13.2455C9.609 13.3605 9.90286 13.4197 10.1997 13.4197C10.4966 13.4197 10.7904 13.3605 11.0641 13.2455C11.3377 13.1305 11.5857 12.962 11.7935 12.75" stroke="#5D625B" stroke-width="1.275" stroke-linecap="round" stroke-linejoin="round"/>
<path d="M7.96875 3.8252C8.925 4.4627 9.5625 6.05645 9.5625 7.0127" stroke="#5D625B" stroke-width="1.275" stroke-linecap="round" stroke-linejoin="round"/>
<path d="M10.5186 3.8252C11.4748 5.1002 11.7936 6.05645 11.7936 7.0127" stroke="#5D625B" stroke-width="1.275" stroke-linecap="round" stroke-linejoin="round"/>
<path d="M8.28711 10.2002H8.29441" stroke="#5D625B" stroke-width="1.275" stroke-linecap="round" stroke-linejoin="round"/>
<path d="M12.1123 10.2002H12.1196" stroke="#5D625B" stroke-width="1.275" stroke-linecap="round" stroke-linejoin="round"/>
</g>
<defs>
<clipPath id="clip0_4012_1217">
<rect width="15.3" height="15.3" fill="white" transform="translate(2.5498 2.55029)"/>
</clipPath>
</defs>
</svg>
