<svg width="21" height="21" viewBox="0 0 21 21" fill="none" xmlns="http://www.w3.org/2000/svg">
<circle cx="10.2" cy="10.2" r="10.2" fill="#D0CEC1"/>
<g clip-path="url(#clip0_4012_1218)">
<path d="M10.1998 10.8375L8.9248 9.5625" stroke="#5D625B" stroke-width="1.275" stroke-linecap="round" stroke-linejoin="round"/>
<path d="M10.2002 10.1998L11.4752 8.9248" stroke="#5D625B" stroke-width="1.275" stroke-linecap="round" stroke-linejoin="round"/>
<path d="M10.2002 15.9374V7.6499" stroke="#5D625B" stroke-width="1.275" stroke-linecap="round" stroke-linejoin="round"/>
<path d="M8.8123 12.7499C8.53338 12.7335 8.26142 12.6563 8.01556 12.5236C7.76969 12.3908 7.5559 12.2058 7.38921 11.9816C7.22252 11.7574 7.10699 11.4993 7.05075 11.2256C6.9945 10.952 6.9989 10.6693 7.06364 10.3975C6.83253 10.205 6.65006 9.96077 6.53107 9.68456C6.41207 9.40834 6.35989 9.10796 6.37877 8.80779C6.39765 8.50763 6.48706 8.21615 6.63973 7.95703C6.7924 7.6979 7.00403 7.47844 7.25744 7.31645C7.03519 6.92162 6.96033 6.4607 7.04621 6.01583C7.13209 5.57095 7.37312 5.17102 7.72636 4.88728C8.0796 4.60354 8.52211 4.45442 8.97503 4.4665C9.42796 4.47858 9.86189 4.65107 10.1995 4.95324C10.5372 4.65155 10.971 4.47947 11.4236 4.46762C11.8763 4.45578 12.3185 4.60493 12.6715 4.88855C13.0245 5.17216 13.2654 5.57184 13.3514 6.01643C13.4374 6.46102 13.3628 6.92169 13.1409 7.31645C13.3944 7.47838 13.6061 7.69781 13.7588 7.9569C13.9115 8.216 14.001 8.50747 14.0199 8.80763C14.0389 9.1078 13.9868 9.4082 13.8678 9.68444C13.7489 9.96068 13.5664 10.205 13.3354 10.3975C13.4023 10.6785 13.4047 10.971 13.3424 11.2531C13.2801 11.5351 13.1547 11.7994 12.9756 12.0261C12.7965 12.2528 12.5685 12.4359 12.3085 12.5618C12.0485 12.6877 11.7634 12.7531 11.4745 12.753H8.9245L8.8123 12.7499Z" stroke="#5D625B" stroke-width="1.275" stroke-linecap="round" stroke-linejoin="round"/>
</g>
<defs>
<clipPath id="clip0_4012_1218">
<rect width="15.3" height="15.3" fill="white" transform="translate(2.55029 2.5498)"/>
</clipPath>
</defs>
</svg>
