<svg width="21" height="21" viewBox="0 0 21 21" fill="none" xmlns="http://www.w3.org/2000/svg">
<circle cx="10.2" cy="10.2" r="10.2" fill="#D0CEC1"/>
<g clip-path="url(#clip0_4012_1222)">
<path d="M10.2004 15.9374C8.67871 15.9374 7.21936 15.3329 6.14337 14.2569C5.06738 13.1809 4.46289 11.7216 4.46289 10.1999C4.46289 8.67822 5.06738 7.21887 6.14337 6.14288C7.21936 5.06689 8.67871 4.4624 10.2004 4.4624C13.3688 4.4624 15.9379 6.74593 15.9379 9.5624C15.9379 10.2382 15.6357 10.8871 15.0977 11.3653C14.5596 11.8434 13.8297 12.1124 13.0691 12.1124H11.4754C11.191 12.1078 10.9132 12.1985 10.6862 12.37C10.4593 12.5414 10.2962 12.7839 10.2229 13.0587C10.1496 13.3336 10.1703 13.625 10.2818 13.8867C10.3932 14.1485 10.589 14.3654 10.8379 14.503C10.9652 14.6205 11.0525 14.7749 11.0875 14.9445C11.1225 15.1141 11.1035 15.2904 11.0332 15.4487C10.9629 15.607 10.8447 15.7392 10.6953 15.8269C10.5459 15.9145 10.3729 15.9532 10.2004 15.9374Z" stroke="#5D625B" stroke-width="1.275" stroke-linecap="round" stroke-linejoin="round"/>
<path d="M7.33154 9.24346C7.33154 9.41253 7.39871 9.57468 7.51826 9.69424C7.63782 9.81379 7.79997 9.88096 7.96904 9.88096C8.13812 9.88096 8.30027 9.81379 8.41982 9.69424C8.53938 9.57468 8.60654 9.41253 8.60654 9.24346C8.60654 9.07438 8.53938 8.91223 8.41982 8.79268C8.30027 8.67312 8.13812 8.60596 7.96904 8.60596C7.79997 8.60596 7.63782 8.67312 7.51826 8.79268C7.39871 8.91223 7.33154 9.07438 7.33154 9.24346Z" stroke="#5D625B" stroke-width="1.275" stroke-linecap="round" stroke-linejoin="round"/>
<path d="M9.88135 7.33086C9.88135 7.49993 9.94851 7.66209 10.0681 7.78164C10.1876 7.90119 10.3498 7.96836 10.5188 7.96836C10.6879 7.96836 10.8501 7.90119 10.9696 7.78164C11.0892 7.66209 11.1563 7.49993 11.1563 7.33086C11.1563 7.16178 11.0892 6.99963 10.9696 6.88008C10.8501 6.76052 10.6879 6.69336 10.5188 6.69336C10.3498 6.69336 10.1876 6.76052 10.0681 6.88008C9.94851 6.99963 9.88135 7.16178 9.88135 7.33086Z" stroke="#5D625B" stroke-width="1.275" stroke-linecap="round" stroke-linejoin="round"/>
<path d="M12.4316 9.24346C12.4316 9.41253 12.4988 9.57468 12.6184 9.69424C12.7379 9.81379 12.9001 9.88096 13.0691 9.88096C13.2382 9.88096 13.4004 9.81379 13.5199 9.69424C13.6395 9.57468 13.7066 9.41253 13.7066 9.24346C13.7066 9.07438 13.6395 8.91223 13.5199 8.79268C13.4004 8.67312 13.2382 8.60596 13.0691 8.60596C12.9001 8.60596 12.7379 8.67312 12.6184 8.79268C12.4988 8.91223 12.4316 9.07438 12.4316 9.24346Z" stroke="#5D625B" stroke-width="1.275" stroke-linecap="round" stroke-linejoin="round"/>
</g>
<defs>
<clipPath id="clip0_4012_1222">
<rect width="15.3" height="15.3" fill="white" transform="translate(2.55029 2.5498)"/>
</clipPath>
</defs>
</svg>
