<svg width="24" height="24" viewBox="0 0 24 24" xmlns="http://www.w3.org/2000/svg"><path fill="#FFF" d="M11.5 6h1v11h-1z" fill-rule="evenodd"></path><path d="M11.5 7.267C10.568 6.41 9.494 6 8.4 6 5.718 6 4.354 7.656 4.155 7.926A.8.8 0 0 0 4 8.4v10.2a.8.8 0 0 0 1.27.648c.033-.025 1.57-1.048 3.14-1.048 1.527 0 2.79.816 3.09 1.025V7.267zm1 .002C13.425 6.422 14.508 6 15.6 6c2.628 0 4.046 1.656 4.245 1.926A.8.8 0 0 1 20 8.4v10.2a.8.8 0 0 1-1.27.648c-.033-.025-1.445-1.048-3.14-1.048-1.482 0-2.783.82-3.09 1.027V7.269z" fill="currentColor" fill-rule="evenodd"></path></svg>