<svg width="812" height="800" viewBox="0 0 812 800" fill="none" xmlns="http://www.w3.org/2000/svg">
<g clip-path="url(#clip0_2015_644)">
<path opacity="0.6" d="M496.25 230.439L477.474 225.125C475.3 224.51 474.067 222.217 474.752 220.064L510.362 108.079C511.002 106.067 513.095 104.899 515.144 105.411L533.393 109.973C535.622 110.531 536.925 112.848 536.242 115.042L501.158 227.778C500.514 229.849 498.336 231.029 496.25 230.439Z" fill="#6C7A66"/>
<path opacity="0.5" d="M180.471 481.258L163.399 480.234C161.231 480.104 159.563 478.267 159.642 476.096L162.86 387.355C162.938 385.204 164.705 383.5 166.858 383.5H185.291C187.58 383.5 189.402 385.418 189.286 387.704L184.706 477.469C184.592 479.69 182.69 481.391 180.471 481.258Z" fill="#6C7A66"/>
<path opacity="0.6" d="M329.779 544.235L333.238 478.943C333.383 476.205 335.706 474.094 338.445 474.212L363.529 475.287C366.278 475.405 368.416 477.722 368.311 480.472L367.188 510.045C367.084 512.788 369.211 515.102 371.953 515.229L416.871 517.309C419.267 517.42 421.496 515.817 421.721 513.429C422.123 509.177 420.883 506.922 417.962 505.153C416.025 503.981 414.685 501.936 414.952 499.688L417.477 478.411C417.775 475.895 419.908 474 422.442 474H468.884C469.293 474 469.683 473.954 470.08 473.855C550.304 453.802 716.685 412.833 744 404.5C773.5 395.5 779.5 400.5 775 406L576.199 630.881C574.415 632.899 571.352 633.141 569.273 631.427L511.68 583.946C509.428 582.089 506.07 582.549 504.399 584.942L475.554 626.273C474.585 627.662 472.978 628.465 471.286 628.408L360.228 624.659C357.576 624.57 355.315 626.568 355.079 629.212L353.358 648.492C353.149 650.832 351.339 652.711 349.009 653.008L331.441 655.244C328.347 655.638 325.652 653.134 325.817 650.019L329.281 584.639C329.408 582.238 331.303 580.377 333.449 579.294C343.584 574.18 343.454 555.84 334.553 550.793C332.061 549.38 329.627 547.097 329.779 544.235Z" fill="#6C7A66"/>
<path opacity="0.5" d="M142.5 552.101V519.5C142.5 517.291 144.291 515.5 146.5 515.5H198.355C200.62 515.5 202.433 517.379 202.352 519.643L201.141 553.543C201.063 555.735 199.234 557.455 197.041 557.398L146.397 556.1C144.229 556.044 142.5 554.27 142.5 552.101Z" fill="#6C7A66"/>
<g opacity="0.6">
<path d="M102 -25C77.2017 73.9979 38.5 135.5 38.5 228.5L20 824.5" stroke="#D6A177" stroke-width="5"/>
<path d="M847 149.5C584.5 73 468.245 25.2207 246 -35" stroke="#D6A177" stroke-width="8"/>
<path d="M156 483.5L159.203 386.499C159.367 381.536 155.464 377.386 150.5 377.246M35.5 374L150.5 377.246M150.5 377.246V333.075C150.5 327.721 146.283 323.317 140.934 323.084L35.5 318.5" stroke="#D6A177" stroke-width="2"/>
<path d="M441 810C597.222 622.454 688.259 514.822 822.5 368" stroke="#D6A177" stroke-width="8"/>
<path d="M354.503 -7.5L327.503 75C318.967 99.7548 313.931 109.186 325.735 179.919C325.907 180.95 326.005 182 326.015 183.044C327.413 332.137 314.438 568.85 296.5 814.5" stroke="#D6A177" stroke-width="5"/>
<path d="M359.003 -7L332.003 75.5C323.483 100.208 324.831 110.633 336.667 181.022C336.884 182.313 336.981 183.631 336.943 184.939C332.424 337.488 323.424 571.543 305.5 817" stroke="#D6A177" stroke-width="5"/>
<path d="M327 460C337.5 460.833 363.4 461.8 387 463C416.5 464.5 465 465.5 484 460L842.5 374" stroke="#D6A177" stroke-width="5"/>
<path d="M326.5 467.5L367.969 469.343C370.254 469.445 372.504 468.76 374.345 467.403L381 462.5" stroke="#D6A177" stroke-width="5"/>
<path d="M766.5 392.5C782 389.5 792.5 397 783 408.5" stroke="#D6A177" stroke-width="4"/>
<path d="M385 462.5C398 443.667 424.9 404.3 428.5 397.5C432.1 390.7 450 365.333 458.5 353.5L539 235C553.333 210.833 582.5 163.5 609 163.5C660.5 163.5 697.5 224.66 728 230.5C746.8 234.1 795.5 248 817.5 254.5" stroke="#D6A177" stroke-width="3"/>
<path d="M657.5 418.5C649.366 392.971 657.5 373 670.001 326L732 116L781.5 -44" stroke="#D6A177" stroke-width="3"/>
<path d="M415.5 418L539 388M662.5 358L539 388M539 388C531 370 521.99 360.486 536 334.5" stroke="#D6A177" stroke-width="3"/>
<path d="M534.5 241.5L682 284.5" stroke="#D6A177" stroke-width="3"/>
<path d="M414.499 419.5C417.675 410.816 409.498 406.5 411.499 399C418.832 381.333 433.598 344.8 433.998 340C434.498 334 433.5 327.5 439.5 312.5C444.3 300.5 516.5 75.1667 552 -36" stroke="#D6A177" stroke-width="3"/>
<path d="M468.5 226L-118.5 53" stroke="#D6A177" stroke-width="3"/>
<path d="M363 195.5L395.731 86M418 11.5L395.731 86M395.731 86L347 73.1615M335 70L347 73.1615M347 73.1615L350.919 53.449C351.841 48.8151 349.393 44.1686 345.051 42.3074L342 41" stroke="#D6A177" stroke-width="3"/>
<path d="M298 780.5L293.235 774.034C291.795 772.078 291.115 769.666 291.322 767.246L297.783 692.022C297.921 690.423 297.345 688.845 296.21 687.71C295.121 686.621 294.545 685.122 294.624 683.585L304.5 490.5" stroke="#D6A177" stroke-width="4"/>
<path d="M296 650H308.5" stroke="#D6A177" stroke-width="4"/>
<path d="M295 687.5L137 682.861M22.5 679.5L137 682.861M137 682.861L139 560" stroke="#D6A177" stroke-width="2"/>
<path d="M317 490L-12.5 476H-107" stroke="#D6A177" stroke-width="2"/>
<path d="M300 564.5L27.5 554.5" stroke="#D6A177" stroke-width="2"/>
<path d="M155.5 378.5L193 379.517M321.5 383L193 379.517M193 379.517L188.5 483.5" stroke="#D6A177" stroke-width="2"/>
<path d="M202.5 379.5L204.5 325.5M204.5 325.5L144 324M204.5 325.5L223.5 325.904M322 328L223.5 325.904M223.5 325.904L226.731 316.28C227.546 313.853 229.278 311.853 231.502 310.584C238.812 306.415 242.307 302.943 245.109 293.748C246.095 290.51 245.083 287.023 242.744 284.576C207.102 247.286 187.194 224.82 151.5 191.5" stroke="#D6A177" stroke-width="2"/>
<path d="M142 323L144.468 214.905C144.489 213.973 144.641 213.049 144.918 212.159L213.5 -8" stroke="#D6A177" stroke-width="2"/>
<path d="M182 221.5C181.318 228.65 180.538 239.19 180 245.5M177 324C177.113 286.036 177.961 269.422 180 245.5M180 245.5C180.851 235 190 229 198.5 238" stroke="#D6A177" stroke-width="2"/>
<path d="M24.5 659L-12.5 655.836M-110 647.5L-70.5 650.877M-12.5 655.836L-16 805.5M-12.5 655.836L-70.5 650.877M-70.5 650.877L-85 814.5M19 771C-38.9409 769.949 -68.0753 768.884 -99 764" stroke="#D6A177" stroke-width="2"/>
<path d="M-109 611.5C-86.154 590.578 -74.4336 577.721 -56 552.5M-56 552.5L27 555M-56 552.5L-53 477" stroke="#D6A177" stroke-width="2"/>
<path d="M-58.5006 476.5C-58.5704 468.481 -58.994 456.616 -59.181 445M-57.0006 409C-59.2432 413.182 -59.4409 428.85 -59.181 445M-57.0006 409L-100.5 403.5M-57.0006 409H-20.6101C-14.8547 409 -10.2872 413.846 -10.6276 419.592L-14 476.5M-57.0006 409C-55.1051 405.465 -53.1553 386.489 -51.7614 363.5M-50.0004 288C-49.6487 298.848 -49.749 312.863 -50.1655 327.5M-50.0004 288L-100.5 284.5M-50.0004 288L-2 291.017M-59.181 445L-100.5 441.5M-51.7614 363.5H-5.5M-51.7614 363.5C-51.0656 352.026 -50.5084 339.552 -50.1655 327.5M-50.1655 327.5H-100.5M37.5 293.5L-2 291.017M-2 291.017C-0.248543 275.127 0.799723 262.297 1.08057 250M-2 198C0.476038 218.324 1.45299 233.694 1.08057 250M1.08057 250H-100.5" stroke="#D6A177" stroke-width="2"/>
<path d="M610.5 77.5L625.5 23M625.5 23L600 15.5M625.5 23L686.182 43.5123C691.733 45.3885 697.7 42.1127 699.096 36.4227L710 -8" stroke="#D6A177" stroke-width="3"/>
</g>
</g>
<defs>
<clipPath id="clip0_2015_644">
<rect width="812" height="800" fill="white"/>
</clipPath>
</defs>
</svg>
