<svg width="583" height="680" viewBox="0 0 583 680" fill="none" xmlns="http://www.w3.org/2000/svg">
<g clip-path="url(#clip0_2015_1660)">
<path opacity="0.6" d="M371.812 195.873L355.853 191.356C354.005 190.833 352.957 188.885 353.539 187.054L383.808 91.8677C384.352 90.1573 386.131 89.1642 387.872 89.5995L403.384 93.4774C405.279 93.9512 406.386 95.9209 405.806 97.7862L375.985 193.612C375.437 195.372 373.586 196.375 371.812 195.873Z" fill="#6C7A66"/>
<path opacity="0.5" d="M103.401 409.07L88.8897 408.199C87.0466 408.088 85.6286 406.527 85.6955 404.682L88.4313 329.252C88.4977 327.423 89.9993 325.975 91.8291 325.975H107.497C109.443 325.975 110.992 327.605 110.893 329.548L107 405.849C106.904 407.736 105.287 409.183 103.401 409.07Z" fill="#6C7A66"/>
<path opacity="0.6" d="M230.312 462.6L233.252 407.101C233.376 404.774 235.35 402.98 237.678 403.08L258.999 403.994C261.336 404.094 263.153 406.064 263.064 408.401L262.11 433.538C262.021 435.87 263.829 437.837 266.16 437.945L304.34 439.713C306.377 439.807 308.271 438.445 308.463 436.415C308.804 432.801 307.751 430.884 305.267 429.38C303.621 428.384 302.482 426.646 302.709 424.735L304.855 406.649C305.109 404.511 306.922 402.9 309.075 402.9H348.552C348.899 402.9 349.23 402.861 349.567 402.777C417.758 385.732 559.182 350.909 582.4 343.825C607.475 336.175 612.575 340.425 608.75 345.1L439.769 536.249C438.252 537.965 435.649 538.17 433.882 536.713L384.928 496.354C383.013 494.776 380.159 495.167 378.739 497.201L354.221 532.332C353.397 533.513 352.031 534.196 350.593 534.147L256.194 530.961C253.939 530.885 252.018 532.583 251.817 534.83L250.354 551.219C250.176 553.208 248.638 554.805 246.657 555.057L231.725 556.957C229.095 557.292 226.804 555.164 226.944 552.517L229.888 496.943C229.997 494.903 231.607 493.321 233.432 492.4C242.047 488.053 241.936 472.464 234.37 468.174C232.251 466.973 230.183 465.032 230.312 462.6Z" fill="#6C7A66"/>
<path opacity="0.5" d="M71.125 469.286V441.575C71.125 439.697 72.6472 438.175 74.525 438.175H118.601C120.527 438.175 122.068 439.772 121.999 441.696L120.97 470.511C120.904 472.374 119.349 473.836 117.485 473.789L74.4378 472.685C72.5946 472.637 71.125 471.13 71.125 469.286Z" fill="#6C7A66"/>
<g opacity="0.6">
<path d="M36.7 -21.25C15.6214 62.8982 -17.275 115.175 -17.275 194.225L-33 700.825" stroke="#D6A177" stroke-width="4.25"/>
<path d="M669.95 127.075C446.825 62.05 348.008 21.4376 159.1 -29.75" stroke="#D6A177" stroke-width="6.8"/>
<path d="M82.5998 410.975L85.3223 328.524C85.4615 324.306 82.1438 320.778 77.9248 320.659M-19.8252 317.9L77.9248 320.659M77.9248 320.659V283.114C77.9248 278.563 74.3406 274.819 69.794 274.622L-19.8252 270.725" stroke="#D6A177" stroke-width="1.7"/>
<path d="M324.85 688.5C457.638 529.086 535.02 437.598 649.125 312.8" stroke="#D6A177" stroke-width="6.8"/>
<path d="M251.327 -6.375L228.377 63.75C221.122 84.7916 216.841 92.8085 226.875 152.931C227.021 153.807 227.104 154.7 227.113 155.587C228.301 282.317 217.272 483.522 202.025 692.325" stroke="#D6A177" stroke-width="4.25"/>
<path d="M255.152 -5.9502L232.202 64.1748C224.96 85.177 226.106 94.0376 236.167 153.869C236.352 154.966 236.434 156.086 236.401 157.198C232.56 286.865 224.91 485.811 209.675 694.45" stroke="#D6A177" stroke-width="4.25"/>
<path d="M227.95 391C236.875 391.708 258.89 392.53 278.95 393.55C304.025 394.825 345.25 395.675 361.4 391L666.125 317.9" stroke="#D6A177" stroke-width="4.25"/>
<path d="M227.525 397.375L262.774 398.942C264.716 399.028 266.628 398.446 268.193 397.293L273.85 393.125" stroke="#D6A177" stroke-width="4.25"/>
<path d="M277.25 393.125C288.3 377.117 311.165 343.655 314.225 337.875C317.285 332.095 332.5 310.533 339.725 300.475L408.15 199.75C420.333 179.208 445.125 138.975 467.65 138.975C511.425 138.975 542.875 190.961 568.8 195.925C584.78 198.985 626.175 210.8 644.875 216.325" stroke="#D6A177" stroke-width="2.55"/>
<path d="M508.876 355.725C501.961 334.026 508.875 317.05 519.501 277.1L572.2 98.6001L614.275 -37.3999" stroke="#D6A177" stroke-width="2.55"/>
<path d="M303.175 355.3L408.15 329.8M513.125 304.3L408.15 329.8M408.15 329.8C401.35 314.5 393.691 306.413 405.6 284.325" stroke="#D6A177" stroke-width="2.55"/>
<path d="M404.325 205.275L529.7 241.825" stroke="#D6A177" stroke-width="2.55"/>
<path d="M302.324 356.575C305.024 349.193 298.073 345.525 299.774 339.15C306.007 324.133 318.558 293.08 318.898 289C319.323 283.9 318.475 278.375 323.575 265.625C327.655 255.425 389.025 63.8916 419.2 -30.6001" stroke="#D6A177" stroke-width="2.55"/>
<path d="M348.225 192.1L-150.725 45.0498" stroke="#D6A177" stroke-width="2.55"/>
<path d="M258.55 166.175L286.371 73.0999M305.3 9.7749L286.371 73.0999M286.371 73.0999L244.95 62.1872M234.75 59.4999L244.95 62.1872M244.95 62.1872L248.282 45.4316C249.065 41.4927 246.984 37.5432 243.293 35.9612L240.7 34.8499" stroke="#D6A177" stroke-width="2.55"/>
<path d="M203.3 663.425L199.25 657.928C198.025 656.266 197.447 654.216 197.624 652.159L203.115 588.219C203.232 586.859 202.743 585.518 201.778 584.553C200.853 583.628 200.363 582.354 200.43 581.047L208.825 416.925" stroke="#D6A177" stroke-width="3.4"/>
<path d="M201.6 552.5H212.225" stroke="#D6A177" stroke-width="3.4"/>
<path d="M200.75 584.375L66.45 580.432M-30.875 577.575L66.45 580.432M66.45 580.432L68.15 476" stroke="#D6A177" stroke-width="1.7"/>
<path d="M219.45 416.5L-60.6252 404.6H-140.95" stroke="#D6A177" stroke-width="1.7"/>
<path d="M205 479.825L-26.625 471.325" stroke="#D6A177" stroke-width="1.7"/>
<path d="M82.1748 321.725L114.05 322.589M223.275 325.55L114.05 322.589M114.05 322.589L110.225 410.975" stroke="#D6A177" stroke-width="1.7"/>
<path d="M122.125 322.575L123.825 276.675M123.825 276.675L72.3999 275.4M123.825 276.675L139.975 277.019M223.7 278.8L139.975 277.019M139.975 277.019L142.721 268.838C143.414 266.775 144.886 265.075 146.777 263.997C152.99 260.452 155.961 257.502 158.342 249.686C159.181 246.934 158.32 243.97 156.332 241.89C126.036 210.193 109.115 191.097 78.7749 162.775" stroke="#D6A177" stroke-width="1.7"/>
<path d="M70.6997 274.55L72.7974 182.669C72.8155 181.877 72.9443 181.091 73.1799 180.335L131.475 -6.7998" stroke="#D6A177" stroke-width="1.7"/>
<path d="M104.7 188.275C104.12 194.352 103.457 203.311 103 208.675M100.45 275.4C100.546 243.131 101.266 229.009 103 208.675M103 208.675C103.723 199.75 111.5 194.65 118.725 202.3" stroke="#D6A177" stroke-width="1.7"/>
<path d="M468.925 65.8752L481.675 19.5502M481.675 19.5502L460 13.1752M481.675 19.5502L533.255 36.9857C537.973 38.5804 543.045 35.796 544.232 30.9595L553.5 -6.7998" stroke="#D6A177" stroke-width="2.55"/>
</g>
</g>
<defs>
<clipPath id="clip0_2015_1660">
<rect width="583" height="680" fill="white"/>
</clipPath>
</defs>
</svg>
